<svg xmlns="http://www.w3.org/2000/svg" width="340.09765625px" height="132.87109375px" viewBox="-14.384765625 -92.55859375 340.09765625 132.87109375"><path d="M5.62-37.79L5.62-33.30Q5.62-16.89 14.04-7.71Q22.46 1.46 36.62 1.46L36.62 1.46Q45.90 1.46 52.49-1.46Q59.08-4.39 62.40-7.81L62.40-7.81L62.40-35.55L35.64-35.55L35.64-27.83L53.32-27.83L53.32-11.23Q49.80-8.79 45.90-7.67Q41.99-6.54 36.62-6.54L36.62-6.54Q26.37-6.54 20.73-13.67Q15.09-20.80 15.09-33.30L15.09-33.30L15.09-37.79Q15.09-50.29 20.73-57.42Q26.37-64.55 35.69-64.55L35.69-64.55Q43.95-64.55 48.49-60.11Q53.03-55.66 53.03-50.78L53.03-50.78L53.03-50.29L62.40-50.29L62.35-50.83Q61.57-59.62 54.71-66.09Q47.85-72.56 35.79-72.56L35.79-72.56Q22.46-72.56 14.04-63.38Q5.62-54.20 5.62-37.79L5.62-37.79ZM72.85-26.46L72.85-24.90Q72.85-13.28 79.22-5.91Q85.60 1.46 97.56 1.46L97.56 1.46Q104.88 1.46 109.99-1.71Q115.09-4.88 117.53-8.54L117.53-8.54L111.67-13.18Q109.47-10.25 105.96-8.11Q102.44-5.96 97.56-5.96L97.56-5.96Q89.65-5.96 85.89-11.45Q82.13-16.94 82.13-24.90L82.13-24.90L82.13-26.46Q82.13-34.42 85.69-39.92Q89.26-45.41 96.48-45.41L96.48-45.41Q102.44-45.41 105.62-41.50Q108.79-37.60 108.79-32.03L108.79-32.03L108.79-30.86L78.42-30.86L78.42-23.63L117.92-23.63L117.92-27.34Q117.92-39.06 112.26-45.95Q106.59-52.83 96.09-52.83L96.09-52.83Q85.60-52.83 79.22-45.46Q72.85-38.09 72.85-26.46L72.85-26.46ZM125.98-26.46L125.98-24.90Q125.98-13.28 132.35-5.91Q138.72 1.46 150.68 1.46L150.68 1.46Q158.01 1.46 163.11-1.71Q168.21-4.88 170.65-8.54L170.65-8.54L164.79-13.18Q162.60-10.25 159.08-8.11Q155.57-5.96 150.68-5.96L150.68-5.96Q142.77-5.96 139.01-11.45Q135.25-16.94 135.25-24.90L135.25-24.90L135.25-26.46Q135.25-34.42 138.82-39.92Q142.38-45.41 149.61-45.41L149.61-45.41Q155.57-45.41 158.74-41.50Q161.91-37.60 161.91-32.03L161.91-32.03L161.91-30.86L131.54-30.86L131.54-23.63L171.04-23.63L171.04-27.34Q171.04-39.06 165.38-45.95Q159.72-52.83 149.22-52.83L149.22-52.83Q138.72-52.83 132.35-45.46Q125.98-38.09 125.98-26.46L125.98-26.46ZM179.10-26.46L179.10-24.90Q179.10-13.67 184.96-6.35Q190.82 0.98 200.59 0.98L200.59 0.98Q205.96 0.98 209.74-0.95Q213.53-2.88 215.77-6.05L215.77-6.05L215.77-6.05L215.77 20.31L224.85 20.31L224.85-51.37L216.65-51.37L216.26-44.68L215.97-44.68Q214.01-47.85 209.99-50.10Q205.96-52.34 200.59-52.34L200.59-52.34Q190.82-52.34 184.96-45.02Q179.10-37.70 179.10-26.46L179.10-26.46ZM188.38-24.90L188.38-24.90L188.38-26.46Q188.38-34.28 191.80-39.60Q195.21-44.92 202.54-44.92L202.54-44.92Q207.42-44.92 210.84-42.24Q214.26-39.55 215.77-36.13L215.77-36.13L215.77-15.23Q214.26-11.82 210.84-9.13Q207.42-6.45 202.54-6.45L202.54-6.45Q195.21-6.45 191.80-11.77Q188.38-17.09 188.38-24.90ZM239.75-51.37L239.75 0L248.83 0L248.83-51.37L239.75-51.37ZM238.62-66.89L238.62-66.89Q238.62-64.60 240.09-63.04Q241.55-61.47 244.29-61.47L244.29-61.47Q247.02-61.47 248.49-63.04Q249.95-64.60 249.95-66.89L249.95-66.89Q249.95-69.19 248.49-70.75Q247.02-72.31 244.29-72.31L244.29-72.31Q241.55-72.31 240.09-70.75Q238.62-69.19 238.62-66.89ZM260.64-26.46L260.64-24.90Q260.64-13.28 267.02-5.91Q273.39 1.46 285.35 1.46L285.35 1.46Q292.68 1.46 297.78-1.71Q302.88-4.88 305.32-8.54L305.32-8.54L299.46-13.18Q297.27-10.25 293.75-8.11Q290.23-5.96 285.35-5.96L285.35-5.96Q277.44-5.96 273.68-11.45Q269.92-16.94 269.92-24.90L269.92-24.90L269.92-26.46Q269.92-34.42 273.49-39.92Q277.05-45.41 284.28-45.41L284.28-45.41Q290.23-45.41 293.41-41.50Q296.58-37.60 296.58-32.03L296.58-32.03L296.58-30.86L266.21-30.86L266.21-23.63L305.71-23.63L305.71-27.34Q305.71-39.06 300.05-45.95Q294.38-52.83 283.89-52.83L283.89-52.83Q273.39-52.83 267.02-45.46Q260.64-38.09 260.64-26.46L260.64-26.46Z" fill="currentColor"/></svg>