<?xml version="1.0" encoding="UTF-8"?>
<!DOCTYPE svg PUBLIC "-//W3C//DTD SVG 1.1//EN" "http://www.w3.org/Graphics/SVG/1.1/DTD/svg11.dtd">
<svg xmlns="http://www.w3.org/2000/svg" version="1.1" width="512px" height="512px" style="shape-rendering:geometricPrecision; text-rendering:geometricPrecision; image-rendering:optimizeQuality; fill-rule:evenodd; clip-rule:evenodd" xmlns:xlink="http://www.w3.org/1999/xlink">
<g><path style="opacity:0.998" fill="#4e5a61" d="M 153.5,-0.5 C 165.833,-0.5 178.167,-0.5 190.5,-0.5C 249.449,7.55364 293.949,37.2203 324,88.5C 337.09,112.86 343.923,138.86 344.5,166.5C 297.238,165.161 256.571,180.495 222.5,212.5C 198.733,233.659 182.233,259.659 173,290.5C 169.682,302.44 167.515,314.44 166.5,326.5C 166.5,324.833 166.5,323.167 166.5,321.5C 96.4237,308.605 49.9237,268.271 27,200.5C 11.5185,141.066 22.6851,87.3997 60.5,39.5C 87.5676,17.1356 118.568,3.80224 153.5,-0.5 Z"/></g>
<g><path style="opacity:0.989" fill="#3f4a4a" d="M 60.5,39.5 C 22.6851,87.3997 11.5185,141.066 27,200.5C 49.9237,268.271 96.4237,308.605 166.5,321.5C 166.5,323.167 166.5,324.833 166.5,326.5C 166.5,332.5 166.5,338.5 166.5,344.5C 100.76,340.727 51.5936,310.394 19,253.5C 8.73208,233.538 2.23208,212.538 -0.5,190.5C -0.5,178.167 -0.5,165.833 -0.5,153.5C 5.63887,107.888 25.9722,69.8881 60.5,39.5 Z"/></g>
<g><path style="opacity:1" fill="#d8e2e7" d="M 122.5,101.5 C 131.173,101.334 139.84,101.5 148.5,102C 165.918,108.591 170.585,120.258 162.5,137C 174.007,147.908 175.507,160.075 167,173.5C 163.279,177.551 158.779,180.384 153.5,182C 142.833,182.667 132.167,182.667 121.5,182C 119.448,181.07 117.948,179.57 117,177.5C 116.333,154.167 116.333,130.833 117,107.5C 118.36,104.977 120.193,102.977 122.5,101.5 Z"/></g>
<g><path style="opacity:1" fill="#4e5a61" d="M 132.5,117.5 C 137.179,117.334 141.845,117.501 146.5,118C 149.683,119.018 151.016,121.185 150.5,124.5C 150.881,127.325 149.881,129.491 147.5,131C 142.511,131.499 137.511,131.666 132.5,131.5C 132.5,126.833 132.5,122.167 132.5,117.5 Z"/></g>
<g><path style="opacity:1" fill="#4f5b62" d="M 132.5,147.5 C 139.257,147.123 145.924,147.623 152.5,149C 156.815,153.121 157.649,157.955 155,163.5C 153.421,165.041 151.587,166.208 149.5,167C 143.843,167.499 138.176,167.666 132.5,167.5C 132.5,160.833 132.5,154.167 132.5,147.5 Z"/></g>
<g><path style="opacity:1" fill="#8f9aa5" d="M 344.5,166.5 C 345.061,213.665 329.728,254.665 298.5,289.5C 298.103,288.475 297.437,288.308 296.5,289C 264.305,313.23 227.971,324.73 187.5,323.5C 186.459,291.537 193.626,261.537 209,233.5C 213.521,226.443 218.021,219.443 222.5,212.5C 256.571,180.495 297.238,165.161 344.5,166.5 Z"/></g>
<g><path style="opacity:0.998" fill="#dbe5ea" d="M 344.5,166.5 C 410.24,170.273 459.406,200.606 492,257.5C 502.268,277.462 508.768,298.462 511.5,320.5C 511.5,332.833 511.5,345.167 511.5,357.5C 507.093,392.971 493.426,424.304 470.5,451.5C 416.485,492.328 357.485,501.161 293.5,478C 236.414,452.409 201.747,408.909 189.5,347.5C 189.623,346.075 189.957,344.742 190.5,343.5C 233.114,338.193 269.114,320.193 298.5,289.5C 329.728,254.665 345.061,213.665 344.5,166.5 Z"/></g>
<g><path style="opacity:1" fill="#5f6c75" d="M 222.5,212.5 C 218.021,219.443 213.521,226.443 209,233.5C 193.626,261.537 186.459,291.537 187.5,323.5C 227.971,324.73 264.305,313.23 296.5,289C 297.437,288.308 298.103,288.475 298.5,289.5C 269.114,320.193 233.114,338.193 190.5,343.5C 182.555,344.437 174.555,344.77 166.5,344.5C 166.5,338.5 166.5,332.5 166.5,326.5C 167.515,314.44 169.682,302.44 173,290.5C 182.233,259.659 198.733,233.659 222.5,212.5 Z"/></g>
<g><path style="opacity:1" fill="#404b4b" d="M 352.5,383.5 C 352.737,387.289 353.404,387.289 354.5,383.5C 357.84,371.141 361.34,358.808 365,346.5C 368.392,340.533 373.226,339.033 379.5,342C 381.049,343.214 382.215,344.714 383,346.5C 386.365,359.57 390.032,372.57 394,385.5C 396.747,371.764 399.747,358.098 403,344.5C 408.021,339.083 412.688,339.416 417,345.5C 413.137,369.526 408.804,393.526 404,417.5C 401.103,422.155 396.937,423.655 391.5,422C 390.069,421.535 388.903,420.701 388,419.5C 383.486,403.776 378.82,388.11 374,372.5C 368.933,387.702 364.266,403.035 360,418.5C 356.692,422.327 352.526,423.494 347.5,422C 345.19,420.363 343.69,418.196 343,415.5C 339.265,393.091 335.098,370.758 330.5,348.5C 334.002,339.1 339.168,338.1 346,345.5C 348.4,358.138 350.567,370.804 352.5,383.5 Z"/></g>
<g><path style="opacity:0.983" fill="#b9c3cd" d="M 190.5,343.5 C 189.957,344.742 189.623,346.075 189.5,347.5C 201.747,408.909 236.414,452.409 293.5,478C 357.485,501.161 416.485,492.328 470.5,451.5C 440.264,485.452 402.597,505.452 357.5,511.5C 345.167,511.5 332.833,511.5 320.5,511.5C 263.786,503.94 220.286,475.94 190,427.5C 174.855,401.924 167.022,374.258 166.5,344.5C 174.555,344.77 182.555,344.437 190.5,343.5 Z"/></g>
<g><path style="opacity:1" fill="#8d979a" d="M 352.5,383.5 C 353.167,383.5 353.833,383.5 354.5,383.5C 353.404,387.289 352.737,387.289 352.5,383.5 Z"/></g>
</svg>
