<?xml version="1.0" encoding="UTF-8"?>
<!DOCTYPE svg PUBLIC "-//W3C//DTD SVG 1.1//EN" "http://www.w3.org/Graphics/SVG/1.1/DTD/svg11.dtd">
<svg xmlns="http://www.w3.org/2000/svg" version="1.1" width="512px" height="512px" style="shape-rendering:geometricPrecision; text-rendering:geometricPrecision; image-rendering:optimizeQuality; fill-rule:evenodd; clip-rule:evenodd" xmlns:xlink="http://www.w3.org/1999/xlink">
<g><path style="opacity:0.971" fill="#ffffff" d="M 116.5,28.5 C 205.834,28.3333 295.167,28.5 384.5,29C 408.641,52.8076 432.474,76.9743 456,101.5C 456.862,103.087 457.529,104.754 458,106.5C 458.667,229.167 458.667,351.833 458,474.5C 457.496,478.02 455.663,480.52 452.5,482C 340.5,482.667 228.5,482.667 116.5,482C 113.572,480.74 111.739,478.573 111,475.5C 110.5,446.835 110.333,418.169 110.5,389.5C 117.5,389.5 124.5,389.5 131.5,389.5C 131.5,413.833 131.5,438.167 131.5,462.5C 233.5,462.5 335.5,462.5 437.5,462.5C 437.667,345.833 437.5,229.166 437,112.5C 416.5,91.3333 396,70.1667 375.5,49C 294.167,48.5 212.834,48.3333 131.5,48.5C 131.5,104.833 131.5,161.167 131.5,217.5C 124.5,217.5 117.5,217.5 110.5,217.5C 110.333,156.832 110.5,96.1658 111,35.5C 111.938,32.4025 113.772,30.0691 116.5,28.5 Z"/></g>
<g><path style="opacity:0.935" fill="#ffffff" d="M 363.5,58.5 C 366.85,58.335 370.183,58.5017 373.5,59C 376.631,63.1328 380.131,66.9662 384,70.5C 384.5,81.8284 384.667,93.1618 384.5,104.5C 395.505,104.333 406.505,104.5 417.5,105C 421,108.5 424.5,112 428,115.5C 428.498,118.817 428.665,122.15 428.5,125.5C 410.164,125.667 391.83,125.5 373.5,125C 368.562,124.728 365.396,122.228 364,117.5C 363.5,97.8362 363.333,78.1695 363.5,58.5 Z"/></g>
<g><path style="opacity:0.967" fill="#ffffff" d="M 62.5,226.5 C 161.877,226.009 261.21,226.509 360.5,228C 363.428,229.26 365.261,231.427 366,234.5C 366.667,280.5 366.667,326.5 366,372.5C 365.214,375.583 363.381,377.749 360.5,379C 259.833,379.667 159.167,379.667 58.5,379C 55.3374,377.52 53.504,375.02 53,371.5C 52.3333,326.167 52.3333,280.833 53,235.5C 54.1291,230.201 57.2957,227.201 62.5,226.5 Z M 73.5,247.5 C 164.167,247.5 254.833,247.5 345.5,247.5C 345.5,284.833 345.5,322.167 345.5,359.5C 254.833,359.5 164.167,359.5 73.5,359.5C 73.5,322.167 73.5,284.833 73.5,247.5 Z"/></g>
<g><path style="opacity:0.937" fill="#ffffff" d="M 284.5,264.5 C 291.639,264.178 298.639,265.012 305.5,267C 310.617,268.732 312.45,272.232 311,277.5C 310.693,282.807 308.026,286.14 303,287.5C 296.337,284.316 289.504,283.816 282.5,286C 273.287,292.66 270.453,301.493 274,312.5C 277.331,319.255 282.831,322.589 290.5,322.5C 294.831,322.224 298.998,321.224 303,319.5C 308,320.778 310.667,324.112 311,329.5C 311.847,332.588 311.347,335.421 309.5,338C 295.331,344.257 281.331,343.923 267.5,337C 253.45,325.861 248.283,311.361 252,293.5C 256.797,276.861 267.63,267.194 284.5,264.5 Z"/></g>
<g><path style="opacity:0.945" fill="#ffffff" d="M 112.5,265.5 C 116.514,265.334 120.514,265.501 124.5,266C 125.931,266.465 127.097,267.299 128,268.5C 128.5,276.159 128.666,283.826 128.5,291.5C 134.5,291.5 140.5,291.5 146.5,291.5C 146.334,283.826 146.5,276.159 147,268.5C 147.903,267.299 149.069,266.465 150.5,266C 155.287,265.121 159.953,265.455 164.5,267C 165.701,267.903 166.535,269.069 167,270.5C 167.667,292.5 167.667,314.5 167,336.5C 166.167,338.667 164.667,340.167 162.5,341C 158.5,341.667 154.5,341.667 150.5,341C 149.069,340.535 147.903,339.701 147,338.5C 146.5,329.506 146.334,320.506 146.5,311.5C 140.5,311.5 134.5,311.5 128.5,311.5C 128.666,320.506 128.5,329.506 128,338.5C 127.097,339.701 125.931,340.535 124.5,341C 120.5,341.667 116.5,341.667 112.5,341C 110.333,340.167 108.833,338.667 108,336.5C 107.333,314.5 107.333,292.5 108,270.5C 109.025,268.313 110.525,266.646 112.5,265.5 Z"/></g>
<g><path style="opacity:0.949" fill="#ffffff" d="M 176.5,265.5 C 189.171,265.333 201.838,265.5 214.5,266C 215.931,266.465 217.097,267.299 218,268.5C 218.667,273.167 218.667,277.833 218,282.5C 217.167,283.333 216.333,284.167 215.5,285C 208.174,285.5 200.841,285.666 193.5,285.5C 193.5,287.833 193.5,290.167 193.5,292.5C 200.508,292.334 207.508,292.5 214.5,293C 217.013,295.396 218.013,298.396 217.5,302C 218.013,305.604 217.013,308.604 214.5,311C 207.508,311.5 200.508,311.666 193.5,311.5C 193.5,314.833 193.5,318.167 193.5,321.5C 201.943,321.062 210.277,321.562 218.5,323C 220.496,327.271 220.996,331.771 220,336.5C 219.535,337.931 218.701,339.097 217.5,340C 203.928,341.63 190.261,341.963 176.5,341C 175.069,340.535 173.903,339.701 173,338.5C 172.333,315.167 172.333,291.833 173,268.5C 174.145,267.364 175.312,266.364 176.5,265.5 Z"/></g>
<g><path style="opacity:0.935" fill="#ffffff" d="M 226.5,265.5 C 232.509,265.334 238.509,265.501 244.5,266C 245,266.5 245.5,267 246,267.5C 246.667,291.5 246.667,315.5 246,339.5C 245.5,340 245,340.5 244.5,341C 238.251,341.809 232.084,341.642 226,340.5C 225.177,315.428 225.344,290.428 226.5,265.5 Z"/></g>
</svg>
