<?xml version="1.0" encoding="UTF-8"?>
<!DOCTYPE svg PUBLIC "-//W3C//DTD SVG 1.1//EN" "http://www.w3.org/Graphics/SVG/1.1/DTD/svg11.dtd">
<svg xmlns="http://www.w3.org/2000/svg" version="1.1" width="512px" height="512px" style="shape-rendering:geometricPrecision; text-rendering:geometricPrecision; image-rendering:optimizeQuality; fill-rule:evenodd; clip-rule:evenodd" xmlns:xlink="http://www.w3.org/1999/xlink">
<g><path style="opacity:0.981" fill="#ffffff" d="M 511.5,229.5 C 511.5,232.167 511.5,234.833 511.5,237.5C 490.395,259.105 469.062,280.605 447.5,302C 441.615,305.356 435.948,305.023 430.5,301C 411.029,280.528 391.195,260.362 371,240.5C 365.975,234.486 366.475,228.986 372.5,224C 385.496,223.5 398.496,223.333 411.5,223.5C 394.875,156.375 352.875,114.875 285.5,99C 225.246,89.6379 174.746,107.471 134,152.5C 128.506,159.487 123.506,166.82 119,174.5C 118.255,175.99 117.088,176.99 115.5,177.5C 95.3535,169.953 75.3535,162.12 55.5,154C 98.8484,75.5527 165.515,34.7194 255.5,31.5C 343.361,33.9901 409.194,72.9901 453,148.5C 465.475,172.093 473.642,197.093 477.5,223.5C 487.506,223.334 497.506,223.5 507.5,224C 508.977,225.812 510.31,227.645 511.5,229.5 Z"/></g>
<g><path style="opacity:0.98" fill="#ffffff" d="M -0.5,298.5 C -0.5,295.833 -0.5,293.167 -0.5,290.5C 20.966,268.866 42.2994,247.033 63.5,225C 68.8333,221.667 74.1667,221.667 79.5,225C 101.029,246.195 122.195,267.695 143,289.5C 144.295,294.669 143.128,299.169 139.5,303C 127.5,303.333 115.5,303.667 103.5,304C 125.603,364.433 168.269,400.766 231.5,413C 296.173,420.233 348.007,398.066 387,346.5C 407.085,354.471 427.252,362.138 447.5,369.5C 437.456,388.407 424.456,405.24 408.5,420C 345.67,474.705 273.67,491.705 192.5,471C 122.433,449.261 72.9332,404.761 44,337.5C 40.054,326.714 36.8873,315.714 34.5,304.5C 24.5166,303.668 14.5166,303.168 4.5,303C 2.96252,301.293 1.29585,299.793 -0.5,298.5 Z"/></g>
</svg>
