<?xml version="1.0" encoding="UTF-8"?>
<!DOCTYPE svg PUBLIC "-//W3C//DTD SVG 1.1//EN" "http://www.w3.org/Graphics/SVG/1.1/DTD/svg11.dtd">
<svg xmlns="http://www.w3.org/2000/svg" version="1.1" width="512px" height="512px" style="shape-rendering:geometricPrecision; text-rendering:geometricPrecision; image-rendering:optimizeQuality; fill-rule:evenodd; clip-rule:evenodd" xmlns:xlink="http://www.w3.org/1999/xlink">
<g><path style="opacity:0.971" fill="#000000" d="M 116.5,28.5 C 205.834,28.3333 295.167,28.5 384.5,29C 408.641,52.8076 432.474,76.9743 456,101.5C 456.862,103.087 457.529,104.754 458,106.5C 458.667,229.167 458.667,351.833 458,474.5C 457.496,478.02 455.663,480.52 452.5,482C 340.5,482.667 228.5,482.667 116.5,482C 113.572,480.74 111.739,478.573 111,475.5C 110.5,446.835 110.333,418.169 110.5,389.5C 117.5,389.5 124.5,389.5 131.5,389.5C 131.5,413.833 131.5,438.167 131.5,462.5C 233.5,462.5 335.5,462.5 437.5,462.5C 437.667,345.833 437.5,229.166 437,112.5C 416.5,91.3333 396,70.1667 375.5,49C 294.167,48.5 212.834,48.3333 131.5,48.5C 131.5,104.833 131.5,161.167 131.5,217.5C 124.5,217.5 117.5,217.5 110.5,217.5C 110.333,156.832 110.5,96.1658 111,35.5C 111.938,32.4025 113.772,30.0691 116.5,28.5 Z"/></g>
<g><path style="opacity:0.935" fill="#000000" d="M 363.5,58.5 C 366.85,58.335 370.183,58.5017 373.5,59C 376.631,63.1328 380.131,66.9662 384,70.5C 384.5,81.8284 384.667,93.1618 384.5,104.5C 395.505,104.333 406.505,104.5 417.5,105C 421,108.5 424.5,112 428,115.5C 428.498,118.817 428.665,122.15 428.5,125.5C 410.164,125.667 391.83,125.5 373.5,125C 368.562,124.728 365.396,122.228 364,117.5C 363.5,97.8362 363.333,78.1695 363.5,58.5 Z"/></g>
<g><path style="opacity:0.967" fill="#000000" d="M 62.5,226.5 C 161.877,226.009 261.21,226.509 360.5,228C 363.428,229.26 365.261,231.427 366,234.5C 366.667,280.5 366.667,326.5 366,372.5C 365.214,375.583 363.381,377.749 360.5,379C 259.833,379.667 159.167,379.667 58.5,379C 55.3374,377.52 53.504,375.02 53,371.5C 52.3333,326.167 52.3333,280.833 53,235.5C 54.1291,230.201 57.2957,227.201 62.5,226.5 Z M 73.5,247.5 C 164.167,247.5 254.833,247.5 345.5,247.5C 345.5,284.833 345.5,322.167 345.5,359.5C 254.833,359.5 164.167,359.5 73.5,359.5C 73.5,322.167 73.5,284.833 73.5,247.5 Z"/></g>
<g><path style="opacity:0.937" fill="#000000" d="M 116.5,267.5 C 129.837,267.333 143.171,267.5 156.5,268C 157.333,268.833 158.167,269.667 159,270.5C 159.667,274.833 159.667,279.167 159,283.5C 158.626,284.416 158.126,285.25 157.5,286C 149.92,287.396 142.253,287.896 134.5,287.5C 134.5,289.5 134.5,291.5 134.5,293.5C 140.842,293.334 147.175,293.5 153.5,294C 157.537,296.075 159.204,299.408 158.5,304C 159.222,308.028 157.889,311.028 154.5,313C 147.842,313.5 141.175,313.666 134.5,313.5C 134.5,316.833 134.5,320.167 134.5,323.5C 142.507,323.334 150.507,323.5 158.5,324C 162.5,330 162.5,336 158.5,342C 144.5,342.667 130.5,342.667 116.5,342C 114.277,341.348 113.11,339.848 113,337.5C 112.333,316.167 112.333,294.833 113,273.5C 113.424,270.975 114.59,268.975 116.5,267.5 Z"/></g>
<g><path style="opacity:0.94" fill="#000000" d="M 168.5,267.5 C 174.29,267.096 179.956,267.596 185.5,269C 188.793,274.418 191.96,279.918 195,285.5C 198.04,279.918 201.207,274.418 204.5,269C 210.053,267.43 215.719,267.097 221.5,268C 222.308,268.308 222.975,268.808 223.5,269.5C 224.562,272.103 224.728,274.77 224,277.5C 218.302,286.368 212.802,295.368 207.5,304.5C 213.333,314.167 219.167,323.833 225,333.5C 225.93,336.85 225.097,339.683 222.5,342C 216.78,342.788 211.114,342.621 205.5,341.5C 201.584,336.004 197.918,330.337 194.5,324.5C 190.958,330.418 187.292,336.251 183.5,342C 178.167,342.667 172.833,342.667 167.5,342C 166.692,341.692 166.025,341.192 165.5,340.5C 164.438,337.897 164.272,335.23 165,332.5C 170.632,323.4 176.132,314.233 181.5,305C 176.134,295.102 170.634,285.269 165,275.5C 164.535,272.043 165.702,269.376 168.5,267.5 Z"/></g>
<g><path style="opacity:0.944" fill="#000000" d="M 231.5,267.5 C 238.167,267.5 244.833,267.5 251.5,267.5C 251.5,292.5 251.5,317.5 251.5,342.5C 244.578,342.812 237.744,342.479 231,341.5C 230.177,316.761 230.344,292.094 231.5,267.5 Z"/></g>
<g><path style="opacity:0.938" fill="#000000" d="M 262.5,267.5 C 275.837,267.333 289.171,267.5 302.5,268C 303,268.5 303.5,269 304,269.5C 305.545,274.047 305.879,278.713 305,283.5C 304.167,284.333 303.333,285.167 302.5,286C 294.92,287.396 287.253,287.896 279.5,287.5C 279.5,289.833 279.5,292.167 279.5,294.5C 285.842,294.334 292.175,294.5 298.5,295C 302.87,296.645 304.537,299.812 303.5,304.5C 304.253,308.681 302.92,311.847 299.5,314C 292.842,314.5 286.175,314.666 279.5,314.5C 279.804,323.221 279.471,331.888 278.5,340.5C 277.975,341.192 277.308,341.692 276.5,342C 271.5,342.667 266.5,342.667 261.5,342C 260.299,341.097 259.465,339.931 259,338.5C 258.333,316.5 258.333,294.5 259,272.5C 259.257,270.093 260.424,268.427 262.5,267.5 Z"/></g>
</svg>
