<?xml version="1.0" encoding="UTF-8"?>
<!DOCTYPE svg PUBLIC "-//W3C//DTD SVG 1.1//EN" "http://www.w3.org/Graphics/SVG/1.1/DTD/svg11.dtd">
<svg xmlns="http://www.w3.org/2000/svg" version="1.1" width="512px" height="512px" style="shape-rendering:geometricPrecision; text-rendering:geometricPrecision; image-rendering:optimizeQuality; fill-rule:evenodd; clip-rule:evenodd" xmlns:xlink="http://www.w3.org/1999/xlink">
<g><path style="opacity:0.968" fill="#000000" d="M 37.5,100.5 C 40.8499,100.335 44.1832,100.502 47.5,101C 168.529,150.276 291.529,155.943 416.5,118C 432.472,113.121 448.139,107.454 463.5,101C 474.574,98.6159 481.74,102.783 485,113.5C 485.667,208.167 485.667,302.833 485,397.5C 481.74,408.217 474.574,412.384 463.5,410C 342.487,360.714 219.487,355.047 94.5,393C 78.5279,397.879 62.8613,403.546 47.5,410C 36.4262,412.384 29.2595,408.217 26,397.5C 25.3333,302.833 25.3333,208.167 26,113.5C 27.6169,107.058 31.4503,102.725 37.5,100.5 Z M 58.5,141.5 C 189.835,186.833 321.168,186.833 452.5,141.5C 452.5,217.5 452.5,293.5 452.5,369.5C 321.168,324.167 189.835,324.167 58.5,369.5C 58.5,293.5 58.5,217.5 58.5,141.5 Z"/></g>
</svg>
