<?xml version="1.0" encoding="UTF-8"?>
<!DOCTYPE svg PUBLIC "-//W3C//DTD SVG 1.1//EN" "http://www.w3.org/Graphics/SVG/1.1/DTD/svg11.dtd">
<svg xmlns="http://www.w3.org/2000/svg" version="1.1" width="512px" height="512px" style="shape-rendering:geometricPrecision; text-rendering:geometricPrecision; image-rendering:optimizeQuality; fill-rule:evenodd; clip-rule:evenodd" xmlns:xlink="http://www.w3.org/1999/xlink">
<g><path style="opacity:0.969" fill="#ffffff" d="M 8.5,-0.5 C 47.5,-0.5 86.5,-0.5 125.5,-0.5C 135.303,5.07932 137.803,13.0793 133,23.5C 131.127,25.7089 128.96,27.5422 126.5,29C 94.5414,30.463 62.5414,30.963 30.5,30.5C 30.9706,62.5495 30.4706,94.5495 29,126.5C 23.1338,135.564 15.3005,137.731 5.5,133C 2.87922,130.886 0.879222,128.386 -0.5,125.5C -0.5,86.5 -0.5,47.5 -0.5,8.5C 0.803551,7.01307 1.97022,5.3464 3,3.5C 5.01533,2.30342 6.84866,0.970083 8.5,-0.5 Z"/></g>
<g><path style="opacity:0.969" fill="#ffffff" d="M 385.5,-0.5 C 424.5,-0.5 463.5,-0.5 502.5,-0.5C 503.987,0.803551 505.654,1.97022 507.5,3C 508.697,5.01533 510.03,6.84866 511.5,8.5C 511.5,47.5 511.5,86.5 511.5,125.5C 505.921,135.303 497.921,137.803 487.5,133C 485.291,131.127 483.458,128.96 482,126.5C 480.529,94.5495 480.029,62.5495 480.5,30.5C 448.451,30.9706 416.451,30.4706 384.5,29C 375.436,23.1338 373.269,15.3005 378,5.5C 380.114,2.87922 382.614,0.879222 385.5,-0.5 Z"/></g>
<g><path style="opacity:0.971" fill="#ffffff" d="M 115.5,104.5 C 208.834,104.333 302.167,104.5 395.5,105C 401,106.5 404.5,110 406,115.5C 406.667,208.833 406.667,302.167 406,395.5C 404.5,401 401,404.5 395.5,406C 302.167,406.667 208.833,406.667 115.5,406C 110,404.5 106.5,401 105,395.5C 104.333,302.167 104.333,208.833 105,115.5C 106.684,109.984 110.184,106.318 115.5,104.5 Z M 135.5,135.5 C 215.5,135.5 295.5,135.5 375.5,135.5C 375.5,215.5 375.5,295.5 375.5,375.5C 295.5,375.5 215.5,375.5 135.5,375.5C 135.5,295.5 135.5,215.5 135.5,135.5 Z"/></g>
<g><path style="opacity:0.969" fill="#ffffff" d="M 125.5,511.5 C 86.5,511.5 47.5,511.5 8.5,511.5C 7.01307,510.196 5.3464,509.03 3.5,508C 2.30342,505.985 0.970083,504.151 -0.5,502.5C -0.5,463.5 -0.5,424.5 -0.5,385.5C 5.07932,375.697 13.0793,373.197 23.5,378C 25.7089,379.873 27.5422,382.04 29,384.5C 30.4706,416.451 30.9706,448.451 30.5,480.5C 62.5495,480.029 94.5495,480.529 126.5,482C 135.564,487.866 137.731,495.7 133,505.5C 130.886,508.121 128.386,510.121 125.5,511.5 Z"/></g>
<g><path style="opacity:0.969" fill="#ffffff" d="M 511.5,385.5 C 511.5,424.5 511.5,463.5 511.5,502.5C 510.196,503.987 509.03,505.654 508,507.5C 505.985,508.697 504.151,510.03 502.5,511.5C 463.5,511.5 424.5,511.5 385.5,511.5C 375.697,505.921 373.197,497.921 378,487.5C 379.873,485.291 382.04,483.458 384.5,482C 416.451,480.529 448.451,480.029 480.5,480.5C 480.029,448.451 480.529,416.451 482,384.5C 487.866,375.436 495.7,373.269 505.5,378C 508.121,380.114 510.121,382.614 511.5,385.5 Z"/></g>
</svg>
