<?xml version="1.0" encoding="UTF-8"?>
<!DOCTYPE svg PUBLIC "-//W3C//DTD SVG 1.1//EN" "http://www.w3.org/Graphics/SVG/1.1/DTD/svg11.dtd">
<svg xmlns="http://www.w3.org/2000/svg" version="1.1" width="512px" height="512px" style="shape-rendering:geometricPrecision; text-rendering:geometricPrecision; image-rendering:optimizeQuality; fill-rule:evenodd; clip-rule:evenodd" xmlns:xlink="http://www.w3.org/1999/xlink">
<g><path style="opacity:0.948" fill="#ffffff" d="M 101.5,39.5 C 170.167,39.3333 238.834,39.5 307.5,40C 341.453,80.7411 375.286,121.574 409,162.5C 409.833,203.837 409.667,245.171 408.5,286.5C 388.402,273.036 368.236,259.703 348,246.5C 330.701,259.628 313.535,272.962 296.5,286.5C 279.5,273.167 262.5,259.833 245.5,246.5C 231.833,259.833 218.167,273.167 204.5,286.5C 190.806,272.972 176.973,259.639 163,246.5C 142.764,259.703 122.598,273.036 102.5,286.5C 101.5,204.169 101.167,121.836 101.5,39.5 Z M 122.5,61.5 C 176.833,61.5 231.167,61.5 285.5,61.5C 285.5,102.5 285.5,143.5 285.5,184.5C 319.833,184.5 354.167,184.5 388.5,184.5C 388.833,205.177 388.5,225.844 387.5,246.5C 374.005,237.251 360.338,228.251 346.5,219.5C 329.833,232.5 313.167,245.5 296.5,258.5C 279.073,244.708 261.573,231.041 244,217.5C 230.374,230.125 217.041,243.125 204,256.5C 191.319,243.653 178.486,230.986 165.5,218.5C 151.5,227.833 137.5,237.167 123.5,246.5C 122.5,184.837 122.167,123.17 122.5,61.5 Z M 307.5,75.5 C 331.969,104.142 356.302,132.976 380.5,162C 356.169,162.5 331.836,162.667 307.5,162.5C 307.5,133.5 307.5,104.5 307.5,75.5 Z"/></g>
<g><path style="opacity:0.949" fill="#ffffff" d="M 161.5,265.5 C 162.552,265.351 163.552,265.517 164.5,266C 177.681,279.347 191.014,292.514 204.5,305.5C 218.167,292.167 231.833,278.833 245.5,265.5C 262.5,278.833 279.5,292.167 296.5,305.5C 313.535,291.962 330.701,278.628 348,265.5C 368.236,278.703 388.402,292.036 408.5,305.5C 409.667,345.496 409.833,385.496 409,425.5C 404.843,447.326 392.009,461.159 370.5,467C 363.286,468.98 355.953,470.313 348.5,471C 266.167,471.5 183.834,471.667 101.5,471.5C 101.167,416.163 101.5,360.829 102.5,305.5C 122.405,292.391 142.072,279.058 161.5,265.5 Z M 347.5,292.5 C 361.493,300.256 374.993,308.922 388,318.5C 388.667,352.167 388.667,385.833 388,419.5C 386.12,434.716 377.62,443.882 362.5,447C 358.886,447.945 355.219,448.612 351.5,449C 275.167,449.5 198.834,449.667 122.5,449.5C 122.333,405.832 122.5,362.165 123,318.5C 135.364,309.971 147.864,301.637 160.5,293.5C 175.153,307.653 189.653,321.986 204,336.5C 218.041,322.125 232.374,308.125 247,294.5C 263.391,307.616 279.891,320.616 296.5,333.5C 313.832,320.159 330.832,306.492 347.5,292.5 Z"/></g>
</svg>
