<?xml version="1.0" encoding="UTF-8"?>
<!DOCTYPE svg PUBLIC "-//W3C//DTD SVG 1.1//EN" "http://www.w3.org/Graphics/SVG/1.1/DTD/svg11.dtd">
<svg xmlns="http://www.w3.org/2000/svg" version="1.1" width="512px" height="512px" style="shape-rendering:geometricPrecision; text-rendering:geometricPrecision; image-rendering:optimizeQuality; fill-rule:evenodd; clip-rule:evenodd" xmlns:xlink="http://www.w3.org/1999/xlink">
<g><path style="opacity:0.996" fill="#000000" d="M 41.5,95.5 C 66.8355,95.3334 92.1689,95.5 117.5,96C 122,97.8333 125.167,101 127,105.5C 127.5,112.826 127.666,120.159 127.5,127.5C 212.833,127.5 298.167,127.5 383.5,127.5C 383.334,120.159 383.5,112.826 384,105.5C 385.833,101 389,97.8333 393.5,96C 418.833,95.3333 444.167,95.3333 469.5,96C 474,97.8333 477.167,101 479,105.5C 479.667,130.833 479.667,156.167 479,181.5C 477.167,186 474,189.167 469.5,191C 462.174,191.5 454.841,191.666 447.5,191.5C 447.5,234.167 447.5,276.833 447.5,319.5C 454.841,319.334 462.174,319.5 469.5,320C 474,321.833 477.167,325 479,329.5C 479.667,354.833 479.667,380.167 479,405.5C 477.167,410 474,413.167 469.5,415C 444.167,415.667 418.833,415.667 393.5,415C 389,413.167 385.833,410 384,405.5C 383.5,398.174 383.334,390.841 383.5,383.5C 298.167,383.5 212.833,383.5 127.5,383.5C 127.666,390.841 127.5,398.174 127,405.5C 125.167,410 122,413.167 117.5,415C 92.1667,415.667 66.8333,415.667 41.5,415C 37,413.167 33.8333,410 32,405.5C 31.3333,380.167 31.3333,354.833 32,329.5C 33.8333,325 37,321.833 41.5,320C 48.8258,319.5 56.1591,319.334 63.5,319.5C 63.5,276.833 63.5,234.167 63.5,191.5C 56.1591,191.666 48.8258,191.5 41.5,191C 37,189.167 33.8333,186 32,181.5C 31.3333,156.167 31.3333,130.833 32,105.5C 34.0223,100.98 37.189,97.6467 41.5,95.5 Z M 63.5,127.5 C 74.1667,127.5 84.8333,127.5 95.5,127.5C 95.5,138.167 95.5,148.833 95.5,159.5C 84.8333,159.5 74.1667,159.5 63.5,159.5C 63.5,148.833 63.5,138.167 63.5,127.5 Z M 415.5,127.5 C 426.167,127.5 436.833,127.5 447.5,127.5C 447.5,138.167 447.5,148.833 447.5,159.5C 436.833,159.5 426.167,159.5 415.5,159.5C 415.5,148.833 415.5,138.167 415.5,127.5 Z M 127.5,159.5 C 212.833,159.5 298.167,159.5 383.5,159.5C 378.5,185.833 389.167,196.5 415.5,191.5C 415.5,234.167 415.5,276.833 415.5,319.5C 389.167,314.5 378.5,325.167 383.5,351.5C 298.167,351.5 212.833,351.5 127.5,351.5C 132.5,325.167 121.833,314.5 95.5,319.5C 95.5,276.833 95.5,234.167 95.5,191.5C 121.833,196.5 132.5,185.833 127.5,159.5 Z M 63.5,351.5 C 74.1667,351.5 84.8333,351.5 95.5,351.5C 95.5,362.167 95.5,372.833 95.5,383.5C 84.8333,383.5 74.1667,383.5 63.5,383.5C 63.5,372.833 63.5,362.167 63.5,351.5 Z M 415.5,351.5 C 426.167,351.5 436.833,351.5 447.5,351.5C 447.5,362.167 447.5,372.833 447.5,383.5C 436.833,383.5 426.167,383.5 415.5,383.5C 415.5,372.833 415.5,362.167 415.5,351.5 Z"/></g>
</svg>
