<?xml version="1.0" encoding="UTF-8"?>
<!DOCTYPE svg PUBLIC "-//W3C//DTD SVG 1.1//EN" "http://www.w3.org/Graphics/SVG/1.1/DTD/svg11.dtd">
<svg xmlns="http://www.w3.org/2000/svg" version="1.1" width="512px" height="512px" style="shape-rendering:geometricPrecision; text-rendering:geometricPrecision; image-rendering:optimizeQuality; fill-rule:evenodd; clip-rule:evenodd" xmlns:xlink="http://www.w3.org/1999/xlink">
<g><path style="opacity:0.956" fill="#ffffff" d="M 367.5,-0.5 C 371.5,-0.5 375.5,-0.5 379.5,-0.5C 423.077,41.5761 466.244,84.2428 509,127.5C 509.608,129.066 510.442,130.4 511.5,131.5C 511.5,135.5 511.5,139.5 511.5,143.5C 508.971,147.189 505.638,150.022 501.5,152C 476.759,160.136 452.092,168.469 427.5,177C 396.081,224.506 364.415,271.839 332.5,319C 353.844,341.363 360.344,367.53 352,397.5C 345.36,415.475 334.193,429.975 318.5,441C 312.332,442.354 306.666,441.354 301.5,438C 267.32,403.653 232.986,369.486 198.5,335.5C 140.68,392.82 83.0136,450.32 25.5,508C 23.6536,509.03 21.9869,510.196 20.5,511.5C 16.5,511.5 12.5,511.5 8.5,511.5C 7.01307,510.196 5.3464,509.03 3.5,508C 2.30342,505.985 0.970083,504.151 -0.5,502.5C -0.5,498.5 -0.5,494.5 -0.5,490.5C 0.803551,489.013 1.97022,487.346 3,485.5C 60.6803,427.986 118.18,370.32 175.5,312.5C 141.514,278.014 107.347,243.68 73,209.5C 68.3333,202.167 68.3333,194.833 73,187.5C 98.2109,157.738 129.378,148.905 166.5,161C 176.099,165.271 184.599,171.105 192,178.5C 239.161,146.585 286.494,114.919 334,83.5C 342.864,57.9075 351.531,32.2408 360,6.5C 362.396,3.93337 364.896,1.60004 367.5,-0.5 Z M 380.5,43.5 C 409.632,72.1318 438.632,100.965 467.5,130C 452.444,136.019 437.111,141.019 421.5,145C 403,126.5 384.5,108 366,89.5C 370.108,74.0071 374.941,58.6737 380.5,43.5 Z M 344.5,113.5 C 362.299,130.798 379.965,148.298 397.5,166C 368.209,209.414 339.043,252.914 310,296.5C 278.167,264.667 246.333,232.833 214.5,201C 258.072,172.058 301.405,142.891 344.5,113.5 Z M 130.5,186.5 C 145.52,185.339 158.52,189.839 169.5,200C 216.667,247.167 263.833,294.333 311,341.5C 327.942,361.397 328.776,381.897 313.5,403C 312.833,403.667 312.167,403.667 311.5,403C 243.667,335.167 175.833,267.333 108,199.5C 107.333,198.833 107.333,198.167 108,197.5C 114.589,191.788 122.089,188.121 130.5,186.5 Z"/></g>
</svg>
