<?xml version="1.0" encoding="UTF-8"?>
<!DOCTYPE svg PUBLIC "-//W3C//DTD SVG 1.1//EN" "http://www.w3.org/Graphics/SVG/1.1/DTD/svg11.dtd">
<svg xmlns="http://www.w3.org/2000/svg" version="1.1" width="512px" height="512px" style="shape-rendering:geometricPrecision; text-rendering:geometricPrecision; image-rendering:optimizeQuality; fill-rule:evenodd; clip-rule:evenodd" xmlns:xlink="http://www.w3.org/1999/xlink">
<g><path style="opacity:0.992" fill="#ffffff" d="M 119.5,31.5 C 190.501,31.3333 261.501,31.5 332.5,32C 336.447,34.2798 340.113,36.9465 343.5,40C 372,65.8333 400.5,91.6667 429,117.5C 429.667,118.833 430.333,120.167 431,121.5C 431.667,227.5 431.667,333.5 431,439.5C 425.833,460.667 412.667,473.833 391.5,479C 300.833,479.667 210.167,479.667 119.5,479C 98.3245,473.824 85.1578,460.658 80,439.5C 79.3333,316.833 79.3333,194.167 80,71.5C 85.3394,50.3278 98.5061,36.9944 119.5,31.5 Z M 128.5,63.5 C 181.5,63.5 234.5,63.5 287.5,63.5C 287.333,82.8362 287.5,102.17 288,121.5C 293.167,141.333 305.667,153.833 325.5,159C 350.164,159.5 374.831,159.667 399.5,159.5C 399.667,250.167 399.5,340.834 399,431.5C 397.046,440.455 391.546,445.621 382.5,447C 296.131,447.987 209.798,447.653 123.5,446C 117.06,443.227 113.226,438.394 112,431.5C 111.333,314.167 111.333,196.833 112,79.5C 114.13,70.534 119.63,65.2007 128.5,63.5 Z M 319.5,63.5 C 342.998,84.8298 366.664,105.996 390.5,127C 372.167,127.667 353.833,127.667 335.5,127C 326.333,125.833 321.167,120.667 320,111.5C 319.5,95.5035 319.333,79.5035 319.5,63.5 Z"/></g>
<g><path style="opacity:0.963" fill="#ffffff" d="M 241.5,175.5 C 269.877,170.895 292.711,179.895 310,202.5C 322.294,224.64 322.627,246.974 311,269.5C 309.333,271.833 307.667,274.167 306,276.5C 295.636,286.529 285.636,296.863 276,307.5C 273.358,314.991 271.358,322.658 270,330.5C 265.351,337.499 258.851,339.999 250.5,338C 245.402,336.567 241.902,333.4 240,328.5C 237.99,313.212 241.324,299.212 250,286.5C 259.636,275.863 269.636,265.529 280,255.5C 287.823,244.303 288.49,232.636 282,220.5C 272.287,209.041 260.121,205.208 245.5,209C 230.185,214.768 222.685,225.935 223,242.5C 218.32,252.217 210.82,255.384 200.5,252C 196.612,249.778 193.779,246.612 192,242.5C 190.985,207.188 207.485,184.854 241.5,175.5 Z"/></g>
<g><path style="opacity:0.94" fill="#ffffff" d="M 249.5,351.5 C 265.985,349.817 273.151,357.151 271,373.5C 266.527,382.482 259.36,385.649 249.5,383C 240.212,378.243 237.046,370.743 240,360.5C 242.406,356.592 245.572,353.592 249.5,351.5 Z"/></g>
</svg>
