<?xml version="1.0" encoding="UTF-8"?>
<!DOCTYPE svg PUBLIC "-//W3C//DTD SVG 1.1//EN" "http://www.w3.org/Graphics/SVG/1.1/DTD/svg11.dtd">
<svg xmlns="http://www.w3.org/2000/svg" version="1.1" width="512px" height="512px" style="shape-rendering:geometricPrecision; text-rendering:geometricPrecision; image-rendering:optimizeQuality; fill-rule:evenodd; clip-rule:evenodd" xmlns:xlink="http://www.w3.org/1999/xlink">
<g><path style="opacity:0.96" fill="#ffffff" d="M 248.5,-0.5 C 253.167,-0.5 257.833,-0.5 262.5,-0.5C 297.077,32.5756 331.244,66.2422 365,100.5C 371.156,114.92 366.656,123.586 351.5,126.5C 347.933,126.589 344.6,125.755 341.5,124C 318.667,101.167 295.833,78.3333 273,55.5C 272.333,188.833 272.333,322.167 273,455.5C 295.833,432.667 318.667,409.833 341.5,387C 350.596,382.518 358.429,384.018 365,391.5C 368.333,397.833 368.333,404.167 365,410.5C 331.244,444.758 297.077,478.424 262.5,511.5C 257.833,511.5 253.167,511.5 248.5,511.5C 213.923,478.424 179.756,444.758 146,410.5C 139.844,396.08 144.344,387.414 159.5,384.5C 163.067,384.411 166.4,385.245 169.5,387C 192.333,409.833 215.167,432.667 238,455.5C 238.667,322.167 238.667,188.833 238,55.5C 215.167,78.3333 192.333,101.167 169.5,124C 159.775,128.719 151.608,126.885 145,118.5C 142.744,112.325 143.077,106.325 146,100.5C 179.756,66.2422 213.923,32.5756 248.5,-0.5 Z"/></g>
</svg>
