<?xml version="1.0" encoding="UTF-8"?>
<!DOCTYPE svg PUBLIC "-//W3C//DTD SVG 1.1//EN" "http://www.w3.org/Graphics/SVG/1.1/DTD/svg11.dtd">
<svg xmlns="http://www.w3.org/2000/svg" version="1.1" width="512px" height="512px" style="shape-rendering:geometricPrecision; text-rendering:geometricPrecision; image-rendering:optimizeQuality; fill-rule:evenodd; clip-rule:evenodd" xmlns:xlink="http://www.w3.org/1999/xlink">
<g><path style="opacity:0.964" fill="#000000" d="M 153.5,-0.5 C 222.833,-0.5 292.167,-0.5 361.5,-0.5C 406.161,45.6611 450.661,91.9944 495,138.5C 495.862,140.087 496.529,141.754 497,143.5C 497.667,253.833 497.667,364.167 497,474.5C 494.674,493.324 484.507,505.657 466.5,511.5C 362.167,511.5 257.833,511.5 153.5,511.5C 137.516,507.015 127.349,496.681 123,480.5C 122.5,448.168 122.333,415.835 122.5,383.5C 93.8314,383.667 65.1647,383.5 36.5,383C 23.2436,379.075 15.7436,370.242 14,356.5C 13.3333,305.5 13.3333,254.5 14,203.5C 15.705,189.792 23.205,180.958 36.5,177C 65.1647,176.5 93.8314,176.333 122.5,176.5C 122.333,127.832 122.5,79.1655 123,30.5C 127.349,14.3186 137.516,3.98523 153.5,-0.5 Z M 159.5,19.5 C 219.167,19.5 278.833,19.5 338.5,19.5C 338.016,63.8936 338.516,108.227 340,152.5C 341.637,154.81 343.804,156.31 346.5,157C 389.832,157.5 433.165,157.667 476.5,157.5C 476.667,263.834 476.5,370.167 476,476.5C 473.758,484.408 468.591,489.241 460.5,491C 358.79,491.991 257.123,491.658 155.5,490C 148.734,486.904 144.568,481.737 143,474.5C 142.5,444.168 142.333,413.835 142.5,383.5C 200.834,383.667 259.168,383.5 317.5,383C 329.101,379.732 336.268,372.232 339,360.5C 339.667,306.833 339.667,253.167 339,199.5C 335.833,187.667 328.333,180.167 316.5,177C 258.501,176.5 200.501,176.333 142.5,176.5C 142.333,129.832 142.5,83.1655 143,36.5C 145.349,27.6522 150.849,21.9855 159.5,19.5 Z M 359.5,28.5 C 394.3,64.1341 428.966,99.9674 463.5,136C 428.835,136.5 394.168,136.667 359.5,136.5C 359.5,100.5 359.5,64.5 359.5,28.5 Z M 43.5,196.5 C 132.167,196.333 220.834,196.5 309.5,197C 315.218,197.596 318.385,200.762 319,206.5C 319.667,255.5 319.667,304.5 319,353.5C 318.624,358.876 315.79,362.042 310.5,363C 220.11,363.992 129.777,363.659 39.5,362C 37.2739,360.773 35.7739,358.939 35,356.5C 34.3333,305.5 34.3333,254.5 35,203.5C 36.8659,199.784 39.6992,197.45 43.5,196.5 Z M 89.5,254.5 C 96.8807,254.314 104.214,254.814 111.5,256C 118.872,260.221 120.372,266.054 116,273.5C 115.097,274.701 113.931,275.535 112.5,276C 104.905,277.356 97.2382,277.856 89.5,277.5C 89.5,269.833 89.5,262.167 89.5,254.5 Z M 168.5,254.5 C 177.79,253.74 186.79,254.906 195.5,258C 201.725,264.91 204.392,273.077 203.5,282.5C 203.924,306.503 192.257,315.503 168.5,309.5C 168.5,291.167 168.5,272.833 168.5,254.5 Z"/></g>
<g><path style="opacity:0.942" fill="#000000" d="M 71.5,239.5 C 88.2093,239.092 104.876,239.592 121.5,241C 135.76,248.369 140.593,259.869 136,275.5C 132.876,284.956 126.376,290.456 116.5,292C 107.507,292.7 98.5075,293.2 89.5,293.5C 89.5,303.833 89.5,314.167 89.5,324.5C 83.5,324.5 77.5,324.5 71.5,324.5C 71.5,296.167 71.5,267.833 71.5,239.5 Z M 89.5,254.5 C 89.5,262.167 89.5,269.833 89.5,277.5C 97.2382,277.856 104.905,277.356 112.5,276C 113.931,275.535 115.097,274.701 116,273.5C 120.372,266.054 118.872,260.221 111.5,256C 104.214,254.814 96.8807,254.314 89.5,254.5 Z"/></g>
<g><path style="opacity:0.946" fill="#000000" d="M 150.5,239.5 C 164.837,239.333 179.171,239.5 193.5,240C 207.438,242.603 216.271,250.77 220,264.5C 224.276,281.354 222.276,297.354 214,312.5C 208.957,318.772 202.457,322.606 194.5,324C 179.837,324.5 165.17,324.667 150.5,324.5C 150.5,296.167 150.5,267.833 150.5,239.5 Z M 168.5,254.5 C 168.5,272.833 168.5,291.167 168.5,309.5C 192.257,315.503 203.924,306.503 203.5,282.5C 204.392,273.077 201.725,264.91 195.5,258C 186.79,254.906 177.79,253.74 168.5,254.5 Z"/></g>
<g><path style="opacity:0.944" fill="#000000" d="M 235.5,239.5 C 255.167,239.5 274.833,239.5 294.5,239.5C 294.5,244.5 294.5,249.5 294.5,254.5C 280.833,254.5 267.167,254.5 253.5,254.5C 253.5,260.833 253.5,267.167 253.5,273.5C 265.5,273.5 277.5,273.5 289.5,273.5C 289.5,278.5 289.5,283.5 289.5,288.5C 277.5,288.5 265.5,288.5 253.5,288.5C 253.5,300.5 253.5,312.5 253.5,324.5C 247.5,324.5 241.5,324.5 235.5,324.5C 235.5,296.167 235.5,267.833 235.5,239.5 Z"/></g>
</svg>
