<?xml version="1.0" encoding="UTF-8"?>
<!DOCTYPE svg PUBLIC "-//W3C//DTD SVG 1.1//EN" "http://www.w3.org/Graphics/SVG/1.1/DTD/svg11.dtd">
<svg xmlns="http://www.w3.org/2000/svg" version="1.1" width="512px" height="512px" style="shape-rendering:geometricPrecision; text-rendering:geometricPrecision; image-rendering:optimizeQuality; fill-rule:evenodd; clip-rule:evenodd" xmlns:xlink="http://www.w3.org/1999/xlink">
<g><path style="opacity:0.984" fill="#000000" d="M 258.5,62.5 C 292.28,60.5366 324.28,67.0366 354.5,82C 362.251,88.0116 365.085,95.8449 363,105.5C 359,117.5 355,129.5 351,141.5C 347.469,150.192 340.969,154.858 331.5,155.5C 318.722,150.449 305.722,145.949 292.5,142C 276.717,138.339 261.051,138.672 245.5,143C 226.701,151.376 221.201,165.209 229,184.5C 231.833,188.667 235.333,192.167 239.5,195C 257.385,205.275 276.051,213.941 295.5,221C 318.491,230.897 338.324,245.064 355,263.5C 373.436,288.911 380.436,317.244 376,348.5C 368.35,392.152 343.85,421.985 302.5,438C 256.538,452.64 210.871,451.64 165.5,435C 155.474,431.24 146.307,426.074 138,419.5C 135.375,415.38 133.875,410.88 133.5,406C 137.528,389.917 142.361,374.084 148,358.5C 154.579,350.814 162.745,348.314 172.5,351C 200.61,368.422 230.943,374.422 263.5,369C 287.341,361.482 296.174,345.649 290,321.5C 285.927,314.092 280.427,307.925 273.5,303C 258.536,294.455 242.869,287.455 226.5,282C 197.141,270.961 173.308,252.795 155,227.5C 133.919,186.717 136.253,147.384 162,109.5C 181.29,86.4297 205.79,71.9297 235.5,66C 243.279,64.5902 250.946,63.4235 258.5,62.5 Z"/></g>
</svg>
