<?xml version="1.0" encoding="UTF-8"?>
<!DOCTYPE svg PUBLIC "-//W3C//DTD SVG 1.1//EN" "http://www.w3.org/Graphics/SVG/1.1/DTD/svg11.dtd">
<svg xmlns="http://www.w3.org/2000/svg" version="1.1" width="512px" height="512px" style="shape-rendering:geometricPrecision; text-rendering:geometricPrecision; image-rendering:optimizeQuality; fill-rule:evenodd; clip-rule:evenodd" xmlns:xlink="http://www.w3.org/1999/xlink">
<g><path style="opacity:0.986" fill="#ffffff" d="M 166.5,41.5 C 261.501,41.3333 356.501,41.5 451.5,42C 461.333,43.8333 467.167,49.6667 469,59.5C 469.99,155.877 469.657,252.21 468,348.5C 465.406,355.428 460.573,359.928 453.5,362C 423.168,362.5 392.835,362.667 362.5,362.5C 362.667,392.502 362.5,422.502 362,452.5C 360.373,460.13 355.873,465.296 348.5,468C 252.21,469.657 155.877,469.99 59.5,469C 50,466.833 44.1667,461 42,451.5C 41.0095,355.123 41.3428,258.79 43,162.5C 45.7036,155.127 50.8703,150.627 58.5,149C 88.4981,148.5 118.498,148.333 148.5,148.5C 148.333,118.165 148.5,87.8315 149,57.5C 151.861,48.8017 157.694,43.4684 166.5,41.5 Z M 191.5,85.5 C 269.5,85.5 347.5,85.5 425.5,85.5C 425.5,163.5 425.5,241.5 425.5,319.5C 404.5,319.5 383.5,319.5 362.5,319.5C 362.667,267.832 362.5,216.166 362,164.5C 359.5,156.667 354.333,151.5 346.5,149C 294.834,148.5 243.168,148.333 191.5,148.5C 191.5,127.5 191.5,106.5 191.5,85.5 Z M 270.5,233.5 C 280.632,243.131 290.632,252.964 300.5,263C 260.667,302.833 220.833,342.667 181,382.5C 156.167,357.667 131.333,332.833 106.5,308C 116.014,298.319 125.681,288.819 135.5,279.5C 150.319,293.819 164.986,308.319 179.5,323C 180.5,323.667 181.5,323.667 182.5,323C 211.646,293.02 240.98,263.187 270.5,233.5 Z"/></g>
</svg>
