<?xml version="1.0" encoding="UTF-8"?>
<!DOCTYPE svg PUBLIC "-//W3C//DTD SVG 1.1//EN" "http://www.w3.org/Graphics/SVG/1.1/DTD/svg11.dtd">
<svg xmlns="http://www.w3.org/2000/svg" version="1.1" width="512px" height="512px" style="shape-rendering:geometricPrecision; text-rendering:geometricPrecision; image-rendering:optimizeQuality; fill-rule:evenodd; clip-rule:evenodd" xmlns:xlink="http://www.w3.org/1999/xlink">
<g><path style="opacity:0.946" fill="#ffffff" d="M 18.5,-0.5 C 57.1667,-0.5 95.8333,-0.5 134.5,-0.5C 144.247,2.75018 150.413,9.41684 153,19.5C 153.667,57.5 153.667,95.5 153,133.5C 150.167,143.667 143.667,150.167 133.5,153C 95.5,153.667 57.5,153.667 19.5,153C 9.41684,150.413 2.75018,144.247 -0.5,134.5C -0.5,95.8333 -0.5,57.1667 -0.5,18.5C 2.83333,9.16667 9.16667,2.83333 18.5,-0.5 Z M 21.5,17.5 C 57.8349,17.3333 94.1682,17.5 130.5,18C 131.931,18.4652 133.097,19.2986 134,20.5C 135.653,56.7486 135.987,93.0819 135,129.5C 134.167,132.333 132.333,134.167 129.5,135C 93.8333,135.667 58.1667,135.667 22.5,135C 21.0692,134.535 19.9025,133.701 19,132.5C 17.3464,95.5846 17.013,58.5846 18,21.5C 19.3756,20.2949 20.5423,18.9616 21.5,17.5 Z"/></g>
<g><path style="opacity:0.947" fill="#ffffff" d="M 197.5,-0.5 C 236.167,-0.5 274.833,-0.5 313.5,-0.5C 322.781,2.61613 328.948,8.94947 332,18.5C 332.976,58.2132 332.643,97.8798 331,137.5C 327.314,145.598 321.147,150.764 312.5,153C 274.5,153.667 236.5,153.667 198.5,153C 189.853,150.764 183.686,145.598 180,137.5C 178.357,97.8798 178.024,58.2132 179,18.5C 182.052,8.94947 188.219,2.61613 197.5,-0.5 Z M 200.5,17.5 C 237.168,17.3333 273.835,17.5 310.5,18C 311.333,18.8333 312.167,19.6667 313,20.5C 314.155,39.0792 314.655,57.7459 314.5,76.5C 331.074,132.382 311.407,152.049 255.5,135.5C 237.5,135.333 219.5,135.167 201.5,135C 200.421,134.044 199.255,133.211 198,132.5C 196.346,95.918 196.013,59.2514 197,22.5C 197.997,20.6769 199.164,19.0103 200.5,17.5 Z"/></g>
<g><path style="opacity:0.946" fill="#ffffff" d="M 376.5,-0.5 C 415.167,-0.5 453.833,-0.5 492.5,-0.5C 501.833,2.83333 508.167,9.16667 511.5,18.5C 511.5,57.1667 511.5,95.8333 511.5,134.5C 508.25,144.247 501.583,150.413 491.5,153C 453.5,153.667 415.5,153.667 377.5,153C 367.333,150.167 360.833,143.667 358,133.5C 357.333,95.5 357.333,57.5 358,19.5C 360.587,9.41684 366.753,2.75018 376.5,-0.5 Z M 380.5,17.5 C 416.835,17.3333 453.168,17.5 489.5,18C 490.667,19.1667 491.833,20.3333 493,21.5C 493.667,57.8333 493.667,94.1667 493,130.5C 492.535,131.931 491.701,133.097 490.5,134C 454.251,135.653 417.918,135.987 381.5,135C 378.667,134.167 376.833,132.333 376,129.5C 375.333,93.8333 375.333,58.1667 376,22.5C 377.025,20.313 378.525,18.6464 380.5,17.5 Z"/></g>
<g><path style="opacity:0.947" fill="#ffffff" d="M -0.5,313.5 C -0.5,274.833 -0.5,236.167 -0.5,197.5C 2.61613,188.219 8.94947,182.052 18.5,179C 58.2132,178.024 97.8798,178.357 137.5,180C 145.598,183.686 150.764,189.853 153,198.5C 153.667,236.5 153.667,274.5 153,312.5C 150.764,321.147 145.598,327.314 137.5,331C 97.8798,332.643 58.2132,332.976 18.5,332C 8.94947,328.948 2.61613,322.781 -0.5,313.5 Z M 22.5,196.5 C 58.5015,196.333 94.5015,196.5 130.5,197C 132.552,197.93 134.052,199.43 135,201.5C 135.667,237.5 135.667,273.5 135,309.5C 134.044,310.579 133.211,311.745 132.5,313C 95.918,314.654 59.2514,314.987 22.5,314C 20.714,313.215 19.214,312.049 18,310.5C 17.3333,273.833 17.3333,237.167 18,200.5C 19.3968,198.93 20.8968,197.596 22.5,196.5 Z"/></g>
<g><path style="opacity:0.947" fill="#ffffff" d="M 197.5,178.5 C 236.168,178.333 274.835,178.5 313.5,179C 323,181.833 329.167,188 332,197.5C 332.667,236.167 332.667,274.833 332,313.5C 329.167,323 323,329.167 313.5,332C 274.833,332.667 236.167,332.667 197.5,332C 188,329.167 181.833,323 179,313.5C 178.333,274.833 178.333,236.167 179,197.5C 182.017,187.984 188.184,181.651 197.5,178.5 Z M 201.5,196.5 C 237.502,196.333 273.502,196.5 309.5,197C 310.931,197.465 312.097,198.299 313,199.5C 314.654,236.082 314.987,272.749 314,309.5C 313.535,310.931 312.701,312.097 311.5,313C 274.918,314.654 238.251,314.987 201.5,314C 200.069,313.535 198.903,312.701 198,311.5C 196.346,274.918 196.013,238.251 197,201.5C 198.025,199.313 199.525,197.646 201.5,196.5 Z"/></g>
<g><path style="opacity:0.947" fill="#ffffff" d="M 511.5,197.5 C 511.5,236.167 511.5,274.833 511.5,313.5C 508.384,322.781 502.051,328.948 492.5,332C 452.787,332.976 413.12,332.643 373.5,331C 365.402,327.314 360.236,321.147 358,312.5C 357.333,274.5 357.333,236.5 358,198.5C 360.236,189.853 365.402,183.686 373.5,180C 413.12,178.357 452.787,178.024 492.5,179C 502.051,182.052 508.384,188.219 511.5,197.5 Z M 380.5,196.5 C 416.502,196.333 452.502,196.5 488.5,197C 490.286,197.785 491.786,198.951 493,200.5C 493.667,237.167 493.667,273.833 493,310.5C 492.167,311.333 491.333,312.167 490.5,313C 471.921,314.155 453.254,314.655 434.5,314.5C 416.5,314.333 398.5,314.167 380.5,314C 378.448,313.07 376.948,311.57 376,309.5C 375.333,273.5 375.333,237.5 376,201.5C 377.059,199.341 378.559,197.674 380.5,196.5 Z"/></g>
<g><path style="opacity:0.946" fill="#ffffff" d="M 134.5,511.5 C 95.8333,511.5 57.1667,511.5 18.5,511.5C 9.16667,508.167 2.83333,501.833 -0.5,492.5C -0.5,453.833 -0.5,415.167 -0.5,376.5C 2.75018,366.753 9.41684,360.587 19.5,358C 57.5,357.333 95.5,357.333 133.5,358C 143.667,360.833 150.167,367.333 153,377.5C 153.667,415.5 153.667,453.5 153,491.5C 150.413,501.583 144.247,508.25 134.5,511.5 Z M 22.5,375.5 C 58.1682,375.333 93.8349,375.5 129.5,376C 132.333,376.833 134.167,378.667 135,381.5C 135.667,417.167 135.667,452.833 135,488.5C 134.535,489.931 133.701,491.097 132.5,492C 95.5846,493.654 58.5846,493.987 21.5,493C 20.3333,491.833 19.1667,490.667 18,489.5C 17.3333,453.167 17.3333,416.833 18,380.5C 19.025,378.313 20.525,376.646 22.5,375.5 Z"/></g>
<g><path style="opacity:0.947" fill="#ffffff" d="M 313.5,511.5 C 274.833,511.5 236.167,511.5 197.5,511.5C 188.219,508.384 182.052,502.051 179,492.5C 178.024,452.787 178.357,413.12 180,373.5C 183.686,365.402 189.853,360.236 198.5,358C 236.5,357.333 274.5,357.333 312.5,358C 321.147,360.236 327.314,365.402 331,373.5C 332.643,413.12 332.976,452.787 332,492.5C 328.948,502.051 322.781,508.384 313.5,511.5 Z M 201.5,375.5 C 237.502,375.333 273.502,375.5 309.5,376C 310.579,376.956 311.745,377.789 313,378.5C 314.654,415.082 314.987,451.749 314,488.5C 313.215,490.286 312.049,491.786 310.5,493C 273.833,493.667 237.167,493.667 200.5,493C 199.667,492.167 198.833,491.333 198,490.5C 196.346,453.918 196.013,417.251 197,380.5C 198.193,378.503 199.693,376.836 201.5,375.5 Z"/></g>
<g><path style="opacity:0.946" fill="#ffffff" d="M 511.5,376.5 C 511.5,415.167 511.5,453.833 511.5,492.5C 508.167,501.833 501.833,508.167 492.5,511.5C 453.833,511.5 415.167,511.5 376.5,511.5C 366.753,508.25 360.587,501.583 358,491.5C 357.333,453.5 357.333,415.5 358,377.5C 360.833,367.333 367.333,360.833 377.5,358C 415.5,357.333 453.5,357.333 491.5,358C 501.583,360.587 508.25,366.753 511.5,376.5 Z M 381.5,375.5 C 417.168,375.333 452.835,375.5 488.5,376C 489.931,376.465 491.097,377.299 492,378.5C 493.654,415.415 493.987,452.415 493,489.5C 491.833,490.667 490.667,491.833 489.5,493C 453.167,493.667 416.833,493.667 380.5,493C 379.069,492.535 377.903,491.701 377,490.5C 375.347,454.251 375.013,417.918 376,381.5C 377.021,378.65 378.854,376.65 381.5,375.5 Z"/></g>
</svg>
