<?xml version="1.0" encoding="UTF-8"?>
<!DOCTYPE svg PUBLIC "-//W3C//DTD SVG 1.1//EN" "http://www.w3.org/Graphics/SVG/1.1/DTD/svg11.dtd">
<svg xmlns="http://www.w3.org/2000/svg" version="1.1" width="512px" height="512px" style="shape-rendering:geometricPrecision; text-rendering:geometricPrecision; image-rendering:optimizeQuality; fill-rule:evenodd; clip-rule:evenodd" xmlns:xlink="http://www.w3.org/1999/xlink">
<g><path style="opacity:0.952" fill="#ffffff" d="M 219.5,-0.5 C 243.5,-0.5 267.5,-0.5 291.5,-0.5C 335.861,1.50732 379.194,9.67399 421.5,24C 443.075,32.0305 461.908,44.1971 478,60.5C 482.609,66.1234 485.943,72.4567 488,79.5C 488.667,196.833 488.667,314.167 488,431.5C 484.654,441.695 479.154,450.529 471.5,458C 449.777,475.028 425.443,487.028 398.5,494C 362.618,503.537 326.284,509.37 289.5,511.5C 266.833,511.5 244.167,511.5 221.5,511.5C 184.717,509.37 148.384,503.537 112.5,494C 85.5567,487.028 61.2234,475.028 39.5,458C 31.8459,450.529 26.3459,441.695 23,431.5C 22.3333,314.167 22.3333,196.833 23,79.5C 28.7275,64.0968 38.5609,51.9301 52.5,43C 82.1605,25.2213 114.16,13.5546 148.5,8C 172.162,3.86835 195.828,1.03502 219.5,-0.5 Z M 233.5,18.5 C 282.397,17.1024 330.73,21.6024 378.5,32C 406.461,37.9758 432.128,48.9758 455.5,65C 473.158,79.832 473.491,94.832 456.5,110C 436.38,124.89 414.046,135.224 389.5,141C 297.655,163.493 205.989,162.827 114.5,139C 94.7657,133.631 76.4323,125.298 59.5,114C 50.3014,107.481 44.3014,98.8145 41.5,88C 44.2556,77.1772 50.2556,68.5105 59.5,62C 77.3013,50.1029 96.6347,41.4362 117.5,36C 155.666,25.906 194.333,20.0726 233.5,18.5 Z M 41.5,124.5 C 60.3307,139.191 81.3307,150.025 104.5,157C 153.829,171.125 204.162,177.625 255.5,176.5C 306.838,177.625 357.171,171.125 406.5,157C 429.541,150.119 450.374,139.286 469,124.5C 469.443,149.434 469.61,174.268 469.5,199C 468.465,204.101 466.632,208.934 464,213.5C 448.983,228.768 431.15,239.601 410.5,246C 360.289,262.173 308.789,269.673 256,268.5C 212.212,269.153 169.046,264.32 126.5,254C 103.33,248.502 81.6634,239.502 61.5,227C 56.3656,222.867 51.5323,218.367 47,213.5C 44.3684,208.934 42.535,204.101 41.5,199C 41.5561,174.27 41.5561,149.436 41.5,124.5 Z M 41.5,236.5 C 52.806,245.496 65.1393,252.996 78.5,259C 112.863,272.874 148.53,281.541 185.5,285C 250.643,291.736 315.31,288.736 379.5,276C 405.688,270.568 430.355,261.235 453.5,248C 458.667,244.167 463.833,240.333 469,236.5C 469.443,261.434 469.61,286.268 469.5,311C 467.421,320.762 462.421,328.762 454.5,335C 439.007,346.246 422.007,354.579 403.5,360C 355.402,374.325 306.236,381.158 256,380.5C 199.185,381.669 144.018,372.836 90.5,354C 74.2379,347.96 60.0712,338.793 48,326.5C 44.6601,321.811 42.4935,316.644 41.5,311C 41.5561,286.27 41.5561,261.436 41.5,236.5 Z M 41.5,348.5 C 67.541,367.586 96.541,380.42 128.5,387C 213.167,405 297.833,405 382.5,387C 414.198,380.614 442.865,367.781 468.5,348.5C 469.666,374.16 469.833,399.827 469,425.5C 467.804,430.223 465.804,434.557 463,438.5C 449.184,452.001 433.018,461.834 414.5,468C 362.904,485.062 309.904,493.228 255.5,492.5C 210.113,492.743 165.446,487.243 121.5,476C 103.051,470.962 85.3842,463.962 68.5,455C 61.0885,450.259 54.2551,444.759 48,438.5C 45.1956,434.557 43.1956,430.223 42,425.5C 41.5,399.835 41.3334,374.169 41.5,348.5 Z"/></g>
</svg>
