<?xml version="1.0" encoding="UTF-8"?>
<!DOCTYPE svg PUBLIC "-//W3C//DTD SVG 1.1//EN" "http://www.w3.org/Graphics/SVG/1.1/DTD/svg11.dtd">
<svg xmlns="http://www.w3.org/2000/svg" version="1.1" width="512px" height="512px" style="shape-rendering:geometricPrecision; text-rendering:geometricPrecision; image-rendering:optimizeQuality; fill-rule:evenodd; clip-rule:evenodd" xmlns:xlink="http://www.w3.org/1999/xlink">
<g><path style="opacity:0.931" fill="#000000" d="M 106.5,50.5 C 114.84,50.3336 123.173,50.5003 131.5,51C 136.069,53.5414 137.569,57.3747 136,62.5C 135.215,64.286 134.049,65.786 132.5,67C 128.27,68.2899 123.936,68.7899 119.5,68.5C 119.949,78.6051 119.449,88.6051 118,98.5C 113,103.833 108,103.833 103,98.5C 101.368,84.2604 101.035,69.927 102,55.5C 103.025,53.313 104.525,51.6464 106.5,50.5 Z"/></g>
<g><path style="opacity:0.911" fill="#000000" d="M 157.5,50.5 C 165.84,50.3336 174.173,50.5003 182.5,51C 187.155,53.8966 188.655,58.0633 187,63.5C 185.457,65.3783 183.624,66.8783 181.5,68C 173.089,68.9054 164.755,68.5721 156.5,67C 151.056,61.1595 151.389,55.6595 157.5,50.5 Z"/></g>
<g><path style="opacity:0.915" fill="#000000" d="M 208.5,50.5 C 216.84,50.3336 225.173,50.5003 233.5,51C 235.286,51.7845 236.786,52.9512 238,54.5C 238.667,57.5 238.667,60.5 238,63.5C 236.891,65.8147 235.057,67.3147 232.5,68C 225.167,68.6667 217.833,68.6667 210.5,68C 201.997,63.1347 201.33,57.3013 208.5,50.5 Z"/></g>
<g><path style="opacity:0.916" fill="#000000" d="M 260.5,50.5 C 268.84,50.3336 277.173,50.5003 285.5,51C 292.314,57.555 291.647,63.2217 283.5,68C 276.167,68.6667 268.833,68.6667 261.5,68C 257.013,66.7002 255.013,63.7002 255.5,59C 255.308,55.0348 256.975,52.2015 260.5,50.5 Z"/></g>
<g><path style="opacity:0.942" fill="#000000" d="M 311.5,50.5 C 317.173,49.8386 322.506,50.6719 327.5,53C 355.028,80.1946 382.195,107.695 409,135.5C 409.667,139.833 409.667,144.167 409,148.5C 407.833,150.333 406.333,151.833 404.5,153C 373.5,153.667 342.5,153.667 311.5,153C 310.069,152.535 308.903,151.701 308,150.5C 306.349,118.919 306.015,87.2523 307,55.5C 308.025,53.313 309.525,51.6464 311.5,50.5 Z M 324.5,76.5 C 344.299,95.7983 363.965,115.298 383.5,135C 363.836,135.5 344.169,135.667 324.5,135.5C 324.5,115.833 324.5,96.1667 324.5,76.5 Z"/></g>
<g><path style="opacity:0.916" fill="#000000" d="M 107.5,118.5 C 112.814,117.74 116.647,119.74 119,124.5C 119.667,132.167 119.667,139.833 119,147.5C 116.367,152.732 112.201,154.565 106.5,153C 104.667,151.833 103.167,150.333 102,148.5C 101.333,140.5 101.333,132.5 102,124.5C 103.021,121.65 104.854,119.65 107.5,118.5 Z"/></g>
<g><path style="opacity:0.91" fill="#000000" d="M 107.5,169.5 C 112.814,168.74 116.647,170.74 119,175.5C 119.667,183.167 119.667,190.833 119,198.5C 116.646,204.095 112.479,205.928 106.5,204C 104.333,203.167 102.833,201.667 102,199.5C 101.333,191.5 101.333,183.5 102,175.5C 103.36,172.977 105.193,170.977 107.5,169.5 Z"/></g>
<g><path style="opacity:0.91" fill="#000000" d="M 397.5,169.5 C 402.814,168.74 406.647,170.74 409,175.5C 409.667,183.5 409.667,191.5 409,199.5C 406.103,204.155 401.937,205.655 396.5,204C 394.185,202.891 392.685,201.057 392,198.5C 391.333,190.833 391.333,183.167 392,175.5C 393.36,172.977 395.193,170.977 397.5,169.5 Z"/></g>
<g><path style="opacity:0.913" fill="#000000" d="M 108.5,220.5 C 113.362,220.243 116.862,222.243 119,226.5C 119.667,234.167 119.667,241.833 119,249.5C 117.877,253.819 115.044,255.819 110.5,255.5C 106.497,255.751 103.664,254.084 102,250.5C 101.333,242.5 101.333,234.5 102,226.5C 103.436,223.558 105.603,221.558 108.5,220.5 Z"/></g>
<g><path style="opacity:0.911" fill="#000000" d="M 399.5,220.5 C 402.939,220.589 405.772,221.922 408,224.5C 409.109,229.056 409.609,233.722 409.5,238.5C 409.609,243.278 409.109,247.944 408,252.5C 403,256.5 398,256.5 393,252.5C 391.891,247.944 391.391,243.278 391.5,238.5C 391.667,234.5 391.833,230.5 392,226.5C 393.542,223.108 396.042,221.108 399.5,220.5 Z"/></g>
<g><path style="opacity:0.911" fill="#000000" d="M 106.5,272.5 C 110.839,271.846 114.673,272.846 118,275.5C 119.576,284.089 119.91,292.756 119,301.5C 113.333,309.5 107.667,309.5 102,301.5C 101.333,293.5 101.333,285.5 102,277.5C 103.025,275.313 104.525,273.646 106.5,272.5 Z"/></g>
<g><path style="opacity:0.911" fill="#000000" d="M 396.5,272.5 C 399.187,272.336 401.854,272.503 404.5,273C 406.667,273.833 408.167,275.333 409,277.5C 409.667,285.5 409.667,293.5 409,301.5C 403.333,309.5 397.667,309.5 392,301.5C 391.333,293.833 391.333,286.167 392,278.5C 392.599,275.746 394.099,273.746 396.5,272.5 Z"/></g>
<g><path style="opacity:0.911" fill="#000000" d="M 106.5,323.5 C 112.44,322.069 116.607,324.069 119,329.5C 119.667,337.167 119.667,344.833 119,352.5C 115.96,358.368 111.46,359.868 105.5,357C 103.951,355.786 102.785,354.286 102,352.5C 101.333,344.5 101.333,336.5 102,328.5C 103.025,326.313 104.525,324.646 106.5,323.5 Z"/></g>
<g><path style="opacity:0.911" fill="#000000" d="M 396.5,323.5 C 399.187,323.336 401.854,323.503 404.5,324C 406.667,324.833 408.167,326.333 409,328.5C 409.667,336.5 409.667,344.5 409,352.5C 405.96,358.368 401.46,359.868 395.5,357C 393.951,355.786 392.785,354.286 392,352.5C 391.333,344.833 391.333,337.167 392,329.5C 392.979,327.032 394.479,325.032 396.5,323.5 Z"/></g>
<g><path style="opacity:0.916" fill="#000000" d="M 107.5,374.5 C 112.814,373.74 116.647,375.74 119,380.5C 119.667,388.167 119.667,395.833 119,403.5C 116.367,408.732 112.201,410.565 106.5,409C 104.667,407.833 103.167,406.333 102,404.5C 101.333,396.5 101.333,388.5 102,380.5C 103.021,377.65 104.854,375.65 107.5,374.5 Z"/></g>
<g><path style="opacity:0.916" fill="#000000" d="M 397.5,374.5 C 402.852,373.758 406.686,375.758 409,380.5C 409.667,388.5 409.667,396.5 409,404.5C 406.413,409.068 402.579,410.568 397.5,409C 395,407.833 393.167,406 392,403.5C 391.333,395.833 391.333,388.167 392,380.5C 393.36,377.977 395.193,375.977 397.5,374.5 Z"/></g>
<g><path style="opacity:0.923" fill="#000000" d="M 107.5,425.5 C 111.803,424.796 115.303,426.13 118,429.5C 119.367,433.7 119.867,438.033 119.5,442.5C 122.85,442.335 126.183,442.502 129.5,443C 134.071,444.24 136.404,447.24 136.5,452C 136.592,454.814 135.592,457.147 133.5,459C 124.602,460.609 115.602,460.942 106.5,460C 105.069,459.535 103.903,458.701 103,457.5C 101.393,448.936 101.06,440.27 102,431.5C 103.36,428.977 105.193,426.977 107.5,425.5 Z"/></g>
<g><path style="opacity:0.931" fill="#000000" d="M 397.5,425.5 C 402.814,424.74 406.647,426.74 409,431.5C 409.667,439.5 409.667,447.5 409,455.5C 408.535,456.931 407.701,458.097 406.5,459C 391.927,460.633 377.26,460.966 362.5,460C 357.931,457.459 356.431,453.625 358,448.5C 359.26,445.572 361.427,443.739 364.5,443C 373.494,442.5 382.494,442.334 391.5,442.5C 391.335,438.818 391.501,435.152 392,431.5C 393.36,428.977 395.193,426.977 397.5,425.5 Z"/></g>
<g><path style="opacity:0.911" fill="#000000" d="M 159.5,442.5 C 167.611,442.065 175.611,442.565 183.5,444C 187.788,447.771 188.621,452.271 186,457.5C 185.097,458.701 183.931,459.535 182.5,460C 174.167,460.667 165.833,460.667 157.5,460C 150.393,453.159 151.06,447.326 159.5,442.5 Z"/></g>
<g><path style="opacity:0.915" fill="#000000" d="M 210.5,442.5 C 217.841,442.334 225.174,442.5 232.5,443C 236.833,444.161 238.833,446.995 238.5,451.5C 238.751,455.503 237.084,458.336 233.5,460C 225.167,460.667 216.833,460.667 208.5,460C 201.506,453.175 202.173,447.342 210.5,442.5 Z"/></g>
<g><path style="opacity:0.916" fill="#000000" d="M 261.5,442.5 C 268.841,442.334 276.174,442.5 283.5,443C 291.647,447.778 292.314,453.445 285.5,460C 276.398,460.942 267.398,460.609 258.5,459C 255.572,455.743 254.738,451.909 256,447.5C 257.352,445.251 259.185,443.584 261.5,442.5 Z"/></g>
<g><path style="opacity:0.913" fill="#000000" d="M 312.5,442.5 C 320.917,442.094 329.251,442.594 337.5,444C 343.088,449.718 342.755,455.052 336.5,460C 328.167,460.667 319.833,460.667 311.5,460C 306.845,457.103 305.345,452.937 307,447.5C 308.73,445.598 310.563,443.931 312.5,442.5 Z"/></g>
</svg>
