<?xml version="1.0" encoding="UTF-8"?>
<!DOCTYPE svg PUBLIC "-//W3C//DTD SVG 1.1//EN" "http://www.w3.org/Graphics/SVG/1.1/DTD/svg11.dtd">
<svg xmlns="http://www.w3.org/2000/svg" version="1.1" width="512px" height="512px" style="shape-rendering:geometricPrecision; text-rendering:geometricPrecision; image-rendering:optimizeQuality; fill-rule:evenodd; clip-rule:evenodd" xmlns:xlink="http://www.w3.org/1999/xlink">
<g><path style="opacity:0.973" fill="#ffffff" d="M 89.5,-0.5 C 200.167,-0.5 310.833,-0.5 421.5,-0.5C 425.811,1.6467 428.978,4.98004 431,9.5C 431.667,173.5 431.667,337.5 431,501.5C 428.978,506.02 425.811,509.353 421.5,511.5C 417.833,511.5 414.167,511.5 410.5,511.5C 409.013,510.196 407.346,509.03 405.5,508C 355.653,457.986 305.653,408.153 255.5,358.5C 205.014,408.486 154.68,458.653 104.5,509C 102.934,509.608 101.6,510.442 100.5,511.5C 96.8333,511.5 93.1667,511.5 89.5,511.5C 85.189,509.353 82.0223,506.02 80,501.5C 79.3333,337.5 79.3333,173.5 80,9.5C 82.0223,4.98004 85.189,1.6467 89.5,-0.5 Z M 110.5,29.5 C 207.167,29.5 303.833,29.5 400.5,29.5C 400.667,172.5 400.5,315.5 400,458.5C 354.833,413.333 309.667,368.167 264.5,323C 258.5,319.667 252.5,319.667 246.5,323C 201.333,368.167 156.167,413.333 111,458.5C 110.5,315.5 110.333,172.5 110.5,29.5 Z"/></g>
</svg>
