<?xml version="1.0" encoding="UTF-8"?>
<!DOCTYPE svg PUBLIC "-//W3C//DTD SVG 1.1//EN" "http://www.w3.org/Graphics/SVG/1.1/DTD/svg11.dtd">
<svg xmlns="http://www.w3.org/2000/svg" version="1.1" width="512px" height="512px" style="shape-rendering:geometricPrecision; text-rendering:geometricPrecision; image-rendering:optimizeQuality; fill-rule:evenodd; clip-rule:evenodd" xmlns:xlink="http://www.w3.org/1999/xlink">
<g><path style="opacity:0.946" fill="#ffffff" d="M 18.5,-0.5 C 57.1667,-0.5 95.8333,-0.5 134.5,-0.5C 144.247,2.75018 150.413,9.41684 153,19.5C 153.667,57.5 153.667,95.5 153,133.5C 150.167,143.667 143.667,150.167 133.5,153C 95.5,153.667 57.5,153.667 19.5,153C 9.41684,150.413 2.75018,144.247 -0.5,134.5C -0.5,95.8333 -0.5,57.1667 -0.5,18.5C 2.83333,9.16667 9.16667,2.83333 18.5,-0.5 Z M 21.5,17.5 C 57.8349,17.3333 94.1682,17.5 130.5,18C 131.931,18.4652 133.097,19.2986 134,20.5C 135.653,56.7486 135.987,93.0819 135,129.5C 134.167,132.333 132.333,134.167 129.5,135C 93.8333,135.667 58.1667,135.667 22.5,135C 21.0692,134.535 19.9025,133.701 19,132.5C 17.3464,95.5846 17.013,58.5846 18,21.5C 19.3756,20.2949 20.5423,18.9616 21.5,17.5 Z"/></g>
<g><path style="opacity:0.946" fill="#ffffff" d="M 511.5,41.5 C 511.5,47.5 511.5,53.5 511.5,59.5C 403.167,59.5 294.833,59.5 186.5,59.5C 186.5,53.5 186.5,47.5 186.5,41.5C 294.833,41.5 403.167,41.5 511.5,41.5 Z"/></g>
<g><path style="opacity:0.946" fill="#ffffff" d="M 511.5,92.5 C 511.5,98.5 511.5,104.5 511.5,110.5C 403.167,110.5 294.833,110.5 186.5,110.5C 186.5,104.5 186.5,98.5 186.5,92.5C 294.833,92.5 403.167,92.5 511.5,92.5 Z"/></g>
<g><path style="opacity:0.947" fill="#ffffff" d="M -0.5,313.5 C -0.5,274.833 -0.5,236.167 -0.5,197.5C 2.61613,188.219 8.94947,182.052 18.5,179C 58.2132,178.024 97.8798,178.357 137.5,180C 145.598,183.686 150.764,189.853 153,198.5C 153.667,236.5 153.667,274.5 153,312.5C 150.764,321.147 145.598,327.314 137.5,331C 97.8798,332.643 58.2132,332.976 18.5,332C 8.94947,328.948 2.61613,322.781 -0.5,313.5 Z M 22.5,196.5 C 58.5015,196.333 94.5015,196.5 130.5,197C 132.552,197.93 134.052,199.43 135,201.5C 135.667,237.5 135.667,273.5 135,309.5C 134.044,310.579 133.211,311.745 132.5,313C 95.918,314.654 59.2514,314.987 22.5,314C 20.714,313.215 19.214,312.049 18,310.5C 17.3333,273.833 17.3333,237.167 18,200.5C 19.3968,198.93 20.8968,197.596 22.5,196.5 Z"/></g>
<g><path style="opacity:0.946" fill="#ffffff" d="M 511.5,220.5 C 511.5,226.5 511.5,232.5 511.5,238.5C 403.167,238.5 294.833,238.5 186.5,238.5C 186.5,232.5 186.5,226.5 186.5,220.5C 294.833,220.5 403.167,220.5 511.5,220.5 Z"/></g>
<g><path style="opacity:0.946" fill="#ffffff" d="M 511.5,272.5 C 511.5,278.5 511.5,284.5 511.5,290.5C 403.167,290.5 294.833,290.5 186.5,290.5C 186.5,284.5 186.5,278.5 186.5,272.5C 294.833,272.5 403.167,272.5 511.5,272.5 Z"/></g>
<g><path style="opacity:0.946" fill="#ffffff" d="M 134.5,511.5 C 95.8333,511.5 57.1667,511.5 18.5,511.5C 9.16667,508.167 2.83333,501.833 -0.5,492.5C -0.5,453.833 -0.5,415.167 -0.5,376.5C 2.75018,366.753 9.41684,360.587 19.5,358C 57.5,357.333 95.5,357.333 133.5,358C 143.667,360.833 150.167,367.333 153,377.5C 153.667,415.5 153.667,453.5 153,491.5C 150.413,501.583 144.247,508.25 134.5,511.5 Z M 22.5,375.5 C 58.1682,375.333 93.8349,375.5 129.5,376C 132.333,376.833 134.167,378.667 135,381.5C 135.667,417.167 135.667,452.833 135,488.5C 134.535,489.931 133.701,491.097 132.5,492C 95.5846,493.654 58.5846,493.987 21.5,493C 20.3333,491.833 19.1667,490.667 18,489.5C 17.3333,453.167 17.3333,416.833 18,380.5C 19.025,378.313 20.525,376.646 22.5,375.5 Z"/></g>
<g><path style="opacity:0.946" fill="#ffffff" d="M 511.5,400.5 C 511.5,406.5 511.5,412.5 511.5,418.5C 403.167,418.5 294.833,418.5 186.5,418.5C 186.5,412.5 186.5,406.5 186.5,400.5C 294.833,400.5 403.167,400.5 511.5,400.5 Z"/></g>
<g><path style="opacity:0.946" fill="#ffffff" d="M 511.5,451.5 C 511.5,457.5 511.5,463.5 511.5,469.5C 403.167,469.5 294.833,469.5 186.5,469.5C 186.5,463.5 186.5,457.5 186.5,451.5C 294.833,451.5 403.167,451.5 511.5,451.5 Z"/></g>
</svg>
