<?xml version="1.0" encoding="UTF-8"?>
<!DOCTYPE svg PUBLIC "-//W3C//DTD SVG 1.1//EN" "http://www.w3.org/Graphics/SVG/1.1/DTD/svg11.dtd">
<svg xmlns="http://www.w3.org/2000/svg" version="1.1" width="512px" height="512px" style="shape-rendering:geometricPrecision; text-rendering:geometricPrecision; image-rendering:optimizeQuality; fill-rule:evenodd; clip-rule:evenodd" xmlns:xlink="http://www.w3.org/1999/xlink">
<g><path style="opacity:0.968" fill="#ffffff" d="M 250.5,53.5 C 319.545,54.9082 367.378,87.2415 394,150.5C 396.48,158.419 398.646,166.419 400.5,174.5C 404.554,169.608 409.554,166.108 415.5,164C 432.671,163.173 440.171,171.34 438,188.5C 437.333,189.833 436.667,191.167 436,192.5C 421.833,206.667 407.667,220.833 393.5,235C 386.833,238.333 380.167,238.333 373.5,235C 359.333,220.833 345.167,206.667 331,192.5C 325.46,180.65 328.293,171.483 339.5,165C 346.3,162.514 352.633,163.348 358.5,167.5C 357.959,161.67 356.125,156.003 353,150.5C 328.993,108.907 292.827,89.4069 244.5,92C 196.429,99.4063 164.929,126.24 150,172.5C 148.615,177.761 147.615,183.094 147,188.5C 146.667,199.833 146.333,211.167 146,222.5C 142.605,235.122 134.439,239.955 121.5,237C 114.483,234.648 110.316,229.815 109,222.5C 104.03,170.652 120.197,126.819 157.5,91C 184.256,67.955 215.256,55.455 250.5,53.5 Z"/></g>
<g><path style="opacity:0.969" fill="#ffffff" d="M 73.5,273.5 C 109.502,273.333 145.502,273.5 181.5,274C 202.869,278.703 215.369,291.87 219,313.5C 219.667,348.167 219.667,382.833 219,417.5C 214.035,441.131 199.535,454.297 175.5,457C 143.5,457.667 111.5,457.667 79.5,457C 55.4653,454.297 40.9653,441.131 36,417.5C 35.0388,380.8 35.3721,344.133 37,307.5C 42.6678,288.993 54.8345,277.66 73.5,273.5 Z M 80.5,310.5 C 111.835,310.333 143.168,310.5 174.5,311C 177.196,311.69 179.363,313.19 181,315.5C 181.667,348.5 181.667,381.5 181,414.5C 180.535,415.931 179.701,417.097 178.5,418C 145.252,419.652 111.919,419.986 78.5,419C 77.0692,418.535 75.9025,417.701 75,416.5C 73.3477,382.919 73.0143,349.252 74,315.5C 75.8049,313.174 77.9716,311.508 80.5,310.5 Z"/></g>
<g><path style="opacity:0.988" fill="#ffffff" d="M 329.5,273.5 C 365.502,273.333 401.502,273.5 437.5,274C 458.869,278.703 471.369,291.87 475,313.5C 475.667,348.167 475.667,382.833 475,417.5C 470.035,441.131 455.535,454.297 431.5,457C 399.5,457.667 367.5,457.667 335.5,457C 311.465,454.297 296.965,441.131 292,417.5C 291.039,380.8 291.372,344.133 293,307.5C 298.668,288.993 310.835,277.66 329.5,273.5 Z"/></g>
</svg>
