<?xml version="1.0" encoding="UTF-8"?>
<!DOCTYPE svg PUBLIC "-//W3C//DTD SVG 1.1//EN" "http://www.w3.org/Graphics/SVG/1.1/DTD/svg11.dtd">
<svg xmlns="http://www.w3.org/2000/svg" version="1.1" width="512px" height="512px" style="shape-rendering:geometricPrecision; text-rendering:geometricPrecision; image-rendering:optimizeQuality; fill-rule:evenodd; clip-rule:evenodd" xmlns:xlink="http://www.w3.org/1999/xlink">
<g><path style="opacity:0.964" fill="#ffffff" d="M 153.5,-0.5 C 222.833,-0.5 292.167,-0.5 361.5,-0.5C 406.161,45.6611 450.661,91.9944 495,138.5C 495.862,140.087 496.529,141.754 497,143.5C 497.667,253.833 497.667,364.167 497,474.5C 494.674,493.324 484.507,505.657 466.5,511.5C 362.167,511.5 257.833,511.5 153.5,511.5C 137.516,507.015 127.349,496.681 123,480.5C 122.5,448.168 122.333,415.835 122.5,383.5C 93.8314,383.667 65.1647,383.5 36.5,383C 23.2436,379.075 15.7436,370.242 14,356.5C 13.3333,305.5 13.3333,254.5 14,203.5C 15.705,189.792 23.205,180.958 36.5,177C 65.1647,176.5 93.8314,176.333 122.5,176.5C 122.333,127.832 122.5,79.1655 123,30.5C 127.349,14.3186 137.516,3.98523 153.5,-0.5 Z M 159.5,19.5 C 219.167,19.5 278.833,19.5 338.5,19.5C 338.016,63.8936 338.516,108.227 340,152.5C 341.637,154.81 343.804,156.31 346.5,157C 389.832,157.5 433.165,157.667 476.5,157.5C 476.667,263.834 476.5,370.167 476,476.5C 473.758,484.408 468.591,489.241 460.5,491C 358.79,491.991 257.123,491.658 155.5,490C 148.734,486.904 144.568,481.737 143,474.5C 142.5,444.168 142.333,413.835 142.5,383.5C 200.834,383.667 259.168,383.5 317.5,383C 329.101,379.732 336.268,372.232 339,360.5C 339.667,306.833 339.667,253.167 339,199.5C 335.833,187.667 328.333,180.167 316.5,177C 258.501,176.5 200.501,176.333 142.5,176.5C 142.333,129.832 142.5,83.1655 143,36.5C 145.349,27.6522 150.849,21.9855 159.5,19.5 Z M 359.5,28.5 C 394.3,64.1341 428.966,99.9674 463.5,136C 428.835,136.5 394.168,136.667 359.5,136.5C 359.5,100.5 359.5,64.5 359.5,28.5 Z M 43.5,196.5 C 132.167,196.333 220.834,196.5 309.5,197C 315.218,197.596 318.385,200.762 319,206.5C 319.667,255.5 319.667,304.5 319,353.5C 318.624,358.876 315.79,362.042 310.5,363C 220.11,363.992 129.777,363.659 39.5,362C 37.2739,360.773 35.7739,358.939 35,356.5C 34.3333,305.5 34.3333,254.5 35,203.5C 36.8659,199.784 39.6992,197.45 43.5,196.5 Z M 224.5,254.5 C 231.881,254.314 239.214,254.814 246.5,256C 255.701,262.756 255.701,269.423 246.5,276C 239.239,277.348 231.906,277.848 224.5,277.5C 224.5,269.833 224.5,262.167 224.5,254.5 Z"/></g>
<g><path style="opacity:0.939" fill="#ffffff" d="M 98.5,239.5 C 119.5,239.5 140.5,239.5 161.5,239.5C 161.666,244.511 161.499,249.511 161,254.5C 146.167,272.667 131.333,290.833 116.5,309C 132.163,309.5 147.83,309.667 163.5,309.5C 163.5,314.5 163.5,319.5 163.5,324.5C 140.167,324.5 116.833,324.5 93.5,324.5C 93.334,319.156 93.5006,313.823 94,308.5C 108.5,290.667 123,272.833 137.5,255C 124.504,254.5 111.504,254.333 98.5,254.5C 98.5,249.5 98.5,244.5 98.5,239.5 Z"/></g>
<g><path style="opacity:0.945" fill="#ffffff" d="M 172.5,239.5 C 178.5,239.5 184.5,239.5 190.5,239.5C 190.5,267.833 190.5,296.167 190.5,324.5C 184.5,324.5 178.5,324.5 172.5,324.5C 172.5,296.167 172.5,267.833 172.5,239.5 Z"/></g>
<g><path style="opacity:0.948" fill="#ffffff" d="M 206.5,239.5 C 222.876,239.094 239.21,239.594 255.5,241C 263.739,243.573 268.905,249.073 271,257.5C 274.928,275.141 268.428,286.641 251.5,292C 242.503,292.625 233.503,293.125 224.5,293.5C 224.5,303.833 224.5,314.167 224.5,324.5C 218.5,324.5 212.5,324.5 206.5,324.5C 206.5,296.167 206.5,267.833 206.5,239.5 Z M 224.5,254.5 C 224.5,262.167 224.5,269.833 224.5,277.5C 231.906,277.848 239.239,277.348 246.5,276C 255.701,269.423 255.701,262.756 246.5,256C 239.214,254.814 231.881,254.314 224.5,254.5 Z"/></g>
</svg>
