<?xml version="1.0" encoding="UTF-8"?>
<!DOCTYPE svg PUBLIC "-//W3C//DTD SVG 1.1//EN" "http://www.w3.org/Graphics/SVG/1.1/DTD/svg11.dtd">
<svg xmlns="http://www.w3.org/2000/svg" version="1.1" width="512px" height="512px" style="shape-rendering:geometricPrecision; text-rendering:geometricPrecision; image-rendering:optimizeQuality; fill-rule:evenodd; clip-rule:evenodd" xmlns:xlink="http://www.w3.org/1999/xlink">
<g><path style="opacity:0.976" fill="#ffffff" d="M 39.5,-0.5 C 52.8333,-0.5 66.1667,-0.5 79.5,-0.5C 79.3334,22.5024 79.5,45.5024 80,68.5C 123.922,27.9612 175.756,4.96118 235.5,-0.5C 249.167,-0.5 262.833,-0.5 276.5,-0.5C 366.971,9.80282 435.138,54.1362 481,132.5C 497.855,164.276 508.021,197.942 511.5,233.5C 511.5,248.5 511.5,263.5 511.5,278.5C 510.092,279.061 508.592,279.395 507,279.5C 494.866,278.048 482.7,277.048 470.5,276.5C 474.689,190.385 441.689,122.885 371.5,74C 316.173,40.0962 257.173,31.7628 194.5,49C 161.644,59.2519 132.644,75.9185 107.5,99C 131.498,99.5 155.498,99.6666 179.5,99.5C 179.5,113.167 179.5,126.833 179.5,140.5C 132.833,140.5 86.1667,140.5 39.5,140.5C 39.5,93.5 39.5,46.5 39.5,-0.5 Z"/></g>
<g><path style="opacity:0.959" fill="#ffffff" d="M -0.5,255.5 C 13.1667,255.5 26.8333,255.5 40.5,255.5C 40.0568,267.834 41.0568,280.001 43.5,292C 29.8698,294.716 16.2032,297.216 2.5,299.5C 1.89512,292.308 0.895119,285.308 -0.5,278.5C -0.5,270.833 -0.5,263.167 -0.5,255.5 Z"/></g>
<g><path style="opacity:0.944" fill="#ffffff" d="M 463.5,311.5 C 477.297,313.946 490.63,317.613 503.5,322.5C 499.432,336.627 494.265,350.293 488,363.5C 476.121,357.56 464.121,351.894 452,346.5C 456.298,335.104 460.132,323.437 463.5,311.5 Z"/></g>
<g><path style="opacity:0.94" fill="#ffffff" d="M 51.5,326.5 C 56.2389,337.984 61.5722,349.317 67.5,360.5C 55.9962,367.42 44.3295,374.086 32.5,380.5C 28.2581,375.028 24.7581,369.028 22,362.5C 19.2645,355.46 16.4311,348.46 13.5,341.5C 13.7093,340.914 14.0426,340.414 14.5,340C 27.0467,335.765 39.3801,331.265 51.5,326.5 Z"/></g>
<g><path style="opacity:0.938" fill="#ffffff" d="M 432.5,377.5 C 444.938,383.928 456.605,391.594 467.5,400.5C 459.3,412.707 449.966,424.04 439.5,434.5C 429.615,425.114 419.948,415.614 410.5,406C 418.684,397.119 426.017,387.619 432.5,377.5 Z"/></g>
<g><path style="opacity:0.941" fill="#ffffff" d="M 86.5,390.5 C 95.2633,399.434 103.93,408.601 112.5,418C 103.98,428.183 95.1465,438.016 86,447.5C 74.9954,437.995 64.8287,427.662 55.5,416.5C 65.8527,407.81 76.186,399.144 86.5,390.5 Z"/></g>
<g><path style="opacity:0.942" fill="#ffffff" d="M 381.5,429.5 C 383.371,429.859 384.871,430.859 386,432.5C 393.167,442.333 400.333,452.167 407.5,462C 395.758,470.959 383.258,478.793 370,485.5C 363.578,473.657 357.411,461.657 351.5,449.5C 361.873,443.319 371.873,436.653 381.5,429.5 Z"/></g>
<g><path style="opacity:0.942" fill="#ffffff" d="M 141.5,438.5 C 151.944,444.806 162.777,450.473 174,455.5C 174.667,456.5 174.667,457.5 174,458.5C 168.999,470.006 164.499,481.673 160.5,493.5C 146.171,488.503 132.838,481.669 120.5,473C 127.379,461.405 134.379,449.905 141.5,438.5 Z"/></g>
<g><path style="opacity:0.947" fill="#ffffff" d="M 313.5,462.5 C 315.766,462.141 317.599,462.808 319,464.5C 322.655,476.121 326.155,487.787 329.5,499.5C 329.182,500.647 328.516,501.481 327.5,502C 314.302,505.539 300.969,508.373 287.5,510.5C 284.929,496.932 282.929,483.266 281.5,469.5C 292.502,468.168 303.169,465.835 313.5,462.5 Z"/></g>
<g><path style="opacity:0.95" fill="#ffffff" d="M 244.5,511.5 C 240.833,511.5 237.167,511.5 233.5,511.5C 222.619,509.966 211.619,508.3 200.5,506.5C 203.038,493.141 205.705,479.808 208.5,466.5C 221.262,468.272 233.928,470.106 246.5,472C 245.337,485.084 244.67,498.251 244.5,511.5 Z"/></g>
</svg>
