<?xml version="1.0" encoding="UTF-8"?>
<!DOCTYPE svg PUBLIC "-//W3C//DTD SVG 1.1//EN" "http://www.w3.org/Graphics/SVG/1.1/DTD/svg11.dtd">
<svg xmlns="http://www.w3.org/2000/svg" version="1.1" width="512px" height="512px" style="shape-rendering:geometricPrecision; text-rendering:geometricPrecision; image-rendering:optimizeQuality; fill-rule:evenodd; clip-rule:evenodd" xmlns:xlink="http://www.w3.org/1999/xlink">
<g><path style="opacity:0.944" fill="#000000" d="M 111.5,-0.5 C 176.5,-0.5 241.5,-0.5 306.5,-0.5C 362.096,46.3151 417.762,93.1484 473.5,140C 476.04,142.205 478.207,144.705 480,147.5C 481.556,257.495 481.889,367.495 481,477.5C 476.415,494.916 465.582,506.249 448.5,511.5C 336.167,511.5 223.833,511.5 111.5,511.5C 94.1816,507.014 83.3482,496.014 79,478.5C 78.5,458.836 78.3334,439.169 78.5,419.5C 68.1017,419.899 57.7683,419.399 47.5,418C 40.3149,415.5 34.8149,411 31,404.5C 29.8483,381.561 29.3483,358.561 29.5,335.5C 29.6667,313.5 29.8333,291.5 30,269.5C 33.3352,260.166 39.8352,254.333 49.5,252C 59.1609,251.5 68.8276,251.334 78.5,251.5C 78.3333,178.499 78.5,105.499 79,32.5C 83.3482,14.9858 94.1816,3.98583 111.5,-0.5 Z M 120.5,9.5 C 177.167,9.5 233.833,9.5 290.5,9.5C 290.333,57.1678 290.5,104.834 291,152.5C 292.5,156.667 295.333,159.5 299.5,161C 356.499,161.5 413.499,161.667 470.5,161.5C 470.667,266.501 470.5,371.501 470,476.5C 465.2,491.296 455.033,499.463 439.5,501C 330.808,501.985 222.141,501.652 113.5,500C 101.009,496.842 93.1755,489.009 90,476.5C 89.5001,457.503 89.3334,438.503 89.5,419.5C 188.536,419.989 287.536,419.489 386.5,418C 395.263,415.57 401.096,410.07 404,401.5C 404.667,357.167 404.667,312.833 404,268.5C 400.833,261.333 395.667,256.167 388.5,253C 288.544,251.509 188.544,251.009 88.5,251.5C 88.3333,181.499 88.5,111.499 89,41.5C 91.0109,22.3232 101.511,11.6566 120.5,9.5 Z M 301.5,11.5 C 357.001,58.1652 412.668,104.665 468.5,151C 413.084,151.991 357.751,151.658 302.5,150C 301.503,103.905 301.17,57.7387 301.5,11.5 Z M 57.5,261.5 C 163.834,261.333 270.167,261.5 376.5,262C 385.318,262.47 390.485,266.97 392,275.5C 392.977,316.88 392.644,358.213 391,399.5C 388.685,403.817 385.185,406.65 380.5,408C 270.777,408.994 161.111,408.66 51.5,407C 47.7251,405.558 44.8917,403.058 43,399.5C 42.3333,356.833 42.3333,314.167 43,271.5C 46.0971,265.558 50.9305,262.225 57.5,261.5 Z M 194.5,315.5 C 203.028,315.197 208.194,319.197 210,327.5C 210.667,332.833 210.667,338.167 210,343.5C 209.331,348.708 206.498,351.875 201.5,353C 197.848,353.499 194.182,353.665 190.5,353.5C 190.5,341.167 190.5,328.833 190.5,316.5C 192.099,316.768 193.432,316.434 194.5,315.5 Z M 345.5,315.5 C 354.576,314.086 360.409,317.752 363,326.5C 363.877,333.249 363.544,339.916 362,346.5C 357.041,354.739 350.207,356.572 341.5,352C 338.366,349.612 336.533,346.446 336,342.5C 334.945,335.314 335.612,328.314 338,321.5C 340.114,318.879 342.614,316.879 345.5,315.5 Z"/></g>
<g><path style="opacity:0.942" fill="#000000" d="M 346.5,297.5 C 376.642,298.147 389.809,313.481 386,343.5C 383.7,358.465 375.2,367.631 360.5,371C 323.893,375.059 308.393,358.893 314,322.5C 316.152,313.351 321.319,306.518 329.5,302C 335.087,299.688 340.754,298.188 346.5,297.5 Z M 345.5,315.5 C 342.614,316.879 340.114,318.879 338,321.5C 335.612,328.314 334.945,335.314 336,342.5C 336.533,346.446 338.366,349.612 341.5,352C 350.207,356.572 357.041,354.739 362,346.5C 363.544,339.916 363.877,333.249 363,326.5C 360.409,317.752 354.576,314.086 345.5,315.5 Z"/></g>
<g><path style="opacity:0.941" fill="#000000" d="M 45.5,299.5 C 53.5277,299.169 61.5277,299.502 69.5,300.5C 74.2123,316.362 79.3789,332.029 85,347.5C 89.7342,331.798 94.5676,316.131 99.5,300.5C 107.138,299.503 114.804,299.169 122.5,299.5C 114.306,322.913 105.806,346.246 97,369.5C 88.5851,370.483 80.0851,370.817 71.5,370.5C 63.1184,346.735 54.4517,323.069 45.5,299.5 Z"/></g>
<g><path style="opacity:0.941" fill="#000000" d="M 129.5,299.5 C 137.167,299.5 144.833,299.5 152.5,299.5C 152.5,323.167 152.5,346.833 152.5,370.5C 144.833,370.5 137.167,370.5 129.5,370.5C 129.5,346.833 129.5,323.167 129.5,299.5 Z"/></g>
<g><path style="opacity:0.948" fill="#000000" d="M 167.5,299.5 C 181.837,299.333 196.171,299.5 210.5,300C 220.692,301.856 227.525,307.689 231,317.5C 235.125,331.602 234.125,345.269 228,358.5C 223.003,365.582 216.17,369.416 207.5,370C 194.171,370.5 180.837,370.667 167.5,370.5C 167.5,346.833 167.5,323.167 167.5,299.5 Z M 194.5,315.5 C 193.432,316.434 192.099,316.768 190.5,316.5C 190.5,328.833 190.5,341.167 190.5,353.5C 194.182,353.665 197.848,353.499 201.5,353C 206.498,351.875 209.331,348.708 210,343.5C 210.667,338.167 210.667,332.833 210,327.5C 208.194,319.197 203.028,315.197 194.5,315.5 Z"/></g>
<g><path style="opacity:0.961" fill="#000000" d="M 244.5,299.5 C 264.167,299.5 283.833,299.5 303.5,299.5C 303.5,304.833 303.5,310.167 303.5,315.5C 291.167,315.5 278.833,315.5 266.5,315.5C 266.5,318.833 266.5,322.167 266.5,325.5C 277.833,325.5 289.167,325.5 300.5,325.5C 300.5,330.5 300.5,335.5 300.5,340.5C 289.167,340.5 277.833,340.5 266.5,340.5C 266.5,344.833 266.5,349.167 266.5,353.5C 279.167,353.5 291.833,353.5 304.5,353.5C 304.5,359.167 304.5,364.833 304.5,370.5C 284.5,370.5 264.5,370.5 244.5,370.5C 244.5,346.833 244.5,323.167 244.5,299.5 Z"/></g>
</svg>
