<?xml version="1.0" encoding="UTF-8"?>
<!DOCTYPE svg PUBLIC "-//W3C//DTD SVG 1.1//EN" "http://www.w3.org/Graphics/SVG/1.1/DTD/svg11.dtd">
<svg xmlns="http://www.w3.org/2000/svg" version="1.1" width="512px" height="512px" style="shape-rendering:geometricPrecision; text-rendering:geometricPrecision; image-rendering:optimizeQuality; fill-rule:evenodd; clip-rule:evenodd" xmlns:xlink="http://www.w3.org/1999/xlink">
<g><path style="opacity:0.98" fill="#000000" d="M 164.5,41.5 C 253.501,41.3333 342.501,41.5 431.5,42C 452.667,45.8333 465.167,58.3333 469,79.5C 469.667,168.5 469.667,257.5 469,346.5C 465.704,365.948 454.537,378.115 435.5,383C 343.833,383.667 252.167,383.667 160.5,383C 143.667,378.167 132.833,367.333 128,350.5C 127.333,258.833 127.333,167.167 128,75.5C 133.126,56.5337 145.293,45.2003 164.5,41.5 Z M 170.5,85.5 C 255.5,85.5 340.5,85.5 425.5,85.5C 425.5,170.5 425.5,255.5 425.5,340.5C 340.5,340.5 255.5,340.5 170.5,340.5C 170.5,255.5 170.5,170.5 170.5,85.5 Z"/></g>
<g><path style="opacity:0.962" fill="#000000" d="M 356.5,148.5 C 372.535,147.049 381.535,154.216 383.5,170C 383.727,174.077 382.893,177.91 381,181.5C 350.833,213 320,243.833 288.5,274C 279.996,278.788 271.662,278.455 263.5,273C 246.971,256.805 230.804,240.305 215,223.5C 209.359,209.088 213.525,198.588 227.5,192C 235.713,190.184 243.046,191.851 249.5,197C 258.667,206.167 267.833,215.333 277,224.5C 300.833,200.667 324.667,176.833 348.5,153C 351.099,151.205 353.766,149.705 356.5,148.5 Z"/></g>
<g><path style="opacity:0.968" fill="#000000" d="M 59.5,169.5 C 73.4547,168.042 81.9547,174.042 85,187.5C 85.5,266.833 85.6667,346.166 85.5,425.5C 164.834,425.333 244.167,425.5 323.5,426C 335.104,428.44 341.104,435.606 341.5,447.5C 341.09,459.406 335.09,466.573 323.5,469C 242.167,469.667 160.833,469.667 79.5,469C 58.3333,465.167 45.8333,452.667 42,431.5C 41.3333,350.167 41.3333,268.833 42,187.5C 44.0141,177.654 49.8474,171.654 59.5,169.5 Z"/></g>
</svg>
