<?xml version="1.0" encoding="UTF-8"?>
<!DOCTYPE svg PUBLIC "-//W3C//DTD SVG 1.1//EN" "http://www.w3.org/Graphics/SVG/1.1/DTD/svg11.dtd">
<svg xmlns="http://www.w3.org/2000/svg" version="1.1" width="512px" height="512px" style="shape-rendering:geometricPrecision; text-rendering:geometricPrecision; image-rendering:optimizeQuality; fill-rule:evenodd; clip-rule:evenodd" xmlns:xlink="http://www.w3.org/1999/xlink">
<g><path style="opacity:0.944" fill="#000000" d="M 111.5,-0.5 C 176.5,-0.5 241.5,-0.5 306.5,-0.5C 362.096,46.3151 417.762,93.1484 473.5,140C 476.04,142.205 478.207,144.705 480,147.5C 481.556,257.495 481.889,367.495 481,477.5C 476.415,494.916 465.582,506.249 448.5,511.5C 336.167,511.5 223.833,511.5 111.5,511.5C 94.1816,507.014 83.3482,496.014 79,478.5C 78.5,458.836 78.3334,439.169 78.5,419.5C 68.1017,419.899 57.7683,419.399 47.5,418C 40.3149,415.5 34.8149,411 31,404.5C 29.8483,381.561 29.3483,358.561 29.5,335.5C 29.6667,313.5 29.8333,291.5 30,269.5C 33.3352,260.166 39.8352,254.333 49.5,252C 59.1609,251.5 68.8276,251.334 78.5,251.5C 78.3333,178.499 78.5,105.499 79,32.5C 83.3482,14.9858 94.1816,3.98583 111.5,-0.5 Z M 120.5,9.5 C 177.167,9.5 233.833,9.5 290.5,9.5C 290.333,57.1678 290.5,104.834 291,152.5C 292.5,156.667 295.333,159.5 299.5,161C 356.499,161.5 413.499,161.667 470.5,161.5C 470.667,266.501 470.5,371.501 470,476.5C 465.2,491.296 455.033,499.463 439.5,501C 330.808,501.985 222.141,501.652 113.5,500C 101.009,496.842 93.1755,489.009 90,476.5C 89.5001,457.503 89.3334,438.503 89.5,419.5C 188.536,419.989 287.536,419.489 386.5,418C 395.263,415.57 401.096,410.07 404,401.5C 404.667,357.167 404.667,312.833 404,268.5C 400.833,261.333 395.667,256.167 388.5,253C 288.544,251.509 188.544,251.009 88.5,251.5C 88.3333,181.499 88.5,111.499 89,41.5C 91.0109,22.3232 101.511,11.6566 120.5,9.5 Z M 301.5,11.5 C 357.001,58.1652 412.668,104.665 468.5,151C 413.084,151.991 357.751,151.658 302.5,150C 301.503,103.905 301.17,57.7387 301.5,11.5 Z M 57.5,261.5 C 163.834,261.333 270.167,261.5 376.5,262C 385.318,262.47 390.485,266.97 392,275.5C 392.977,316.88 392.644,358.213 391,399.5C 388.685,403.817 385.185,406.65 380.5,408C 270.777,408.994 161.111,408.66 51.5,407C 47.7251,405.558 44.8917,403.058 43,399.5C 42.3333,356.833 42.3333,314.167 43,271.5C 46.0971,265.558 50.9305,262.225 57.5,261.5 Z M 299.5,313.5 C 303.915,313.305 308.249,313.805 312.5,315C 316.41,319.075 316.41,323.075 312.5,327C 308.304,328.477 303.971,329.311 299.5,329.5C 299.5,324.167 299.5,318.833 299.5,313.5 Z"/></g>
<g><path style="opacity:0.934" fill="#000000" d="M 95.5,297.5 C 104.192,297.169 112.859,297.502 121.5,298.5C 125.468,305.631 129.634,312.631 134,319.5C 137.833,312.5 141.667,305.5 145.5,298.5C 154.167,297.167 162.833,297.167 171.5,298.5C 163.953,310.211 156.62,322.044 149.5,334C 157.494,346.317 165.494,358.65 173.5,371C 164.482,371.832 155.482,371.665 146.5,370.5C 142,363.5 137.5,356.5 133,349.5C 128.875,356.919 124.375,364.086 119.5,371C 110.814,371.832 102.147,371.665 93.5,370.5C 101.763,358.298 109.763,345.965 117.5,333.5C 110.16,321.482 102.826,309.482 95.5,297.5 Z"/></g>
<g><path style="opacity:0.95" fill="#000000" d="M 179.5,297.5 C 189.833,297.5 200.167,297.5 210.5,297.5C 213.837,311.85 217.337,326.183 221,340.5C 224.667,326.5 228.333,312.5 232,298.5C 242.084,297.514 252.251,297.181 262.5,297.5C 262.5,322.167 262.5,346.833 262.5,371.5C 256.167,371.5 249.833,371.5 243.5,371.5C 243.667,354.497 243.5,337.497 243,320.5C 238.358,337.4 234.192,354.4 230.5,371.5C 224.242,371.81 218.076,371.476 212,370.5C 207.511,353.543 203.177,336.543 199,319.5C 198.5,336.83 198.333,354.163 198.5,371.5C 192.167,371.5 185.833,371.5 179.5,371.5C 179.5,346.833 179.5,322.167 179.5,297.5 Z"/></g>
<g><path style="opacity:0.942" fill="#000000" d="M 275.5,297.5 C 291.539,297.115 307.539,297.615 323.5,299C 334.199,302.386 339.199,309.719 338.5,321C 339.132,331.741 334.466,339.074 324.5,343C 316.236,344.37 307.903,344.87 299.5,344.5C 299.5,353.5 299.5,362.5 299.5,371.5C 291.5,371.5 283.5,371.5 275.5,371.5C 275.5,346.833 275.5,322.167 275.5,297.5 Z M 299.5,313.5 C 299.5,318.833 299.5,324.167 299.5,329.5C 303.971,329.311 308.304,328.477 312.5,327C 316.41,323.075 316.41,319.075 312.5,315C 308.249,313.805 303.915,313.305 299.5,313.5 Z"/></g>
</svg>
