<?xml version="1.0" encoding="UTF-8"?>
<!DOCTYPE svg PUBLIC "-//W3C//DTD SVG 1.1//EN" "http://www.w3.org/Graphics/SVG/1.1/DTD/svg11.dtd">
<svg xmlns="http://www.w3.org/2000/svg" version="1.1" width="512px" height="512px" style="shape-rendering:geometricPrecision; text-rendering:geometricPrecision; image-rendering:optimizeQuality; fill-rule:evenodd; clip-rule:evenodd" xmlns:xlink="http://www.w3.org/1999/xlink">
<g><path style="opacity:0.97" fill="#000000" d="M 152.5,36.5 C 249.834,36.3333 347.167,36.5 444.5,37C 460.333,40.8333 470.167,50.6667 474,66.5C 474.667,163.833 474.667,261.167 474,358.5C 470.095,376.038 459.262,386.204 441.5,389C 424.17,389.5 406.837,389.667 389.5,389.5C 389.667,406.837 389.5,424.17 389,441.5C 386.204,459.262 376.038,470.095 358.5,474C 261.167,474.667 163.833,474.667 66.5,474C 50.6667,470.167 40.8333,460.333 37,444.5C 36.3333,347.167 36.3333,249.833 37,152.5C 41.3279,135.417 52.1612,125.25 69.5,122C 86.8301,121.5 104.163,121.333 121.5,121.5C 121.333,104.163 121.5,86.8301 122,69.5C 124.898,51.6569 135.065,40.6569 152.5,36.5 Z M 157.5,69.5 C 251.167,69.3333 344.834,69.5 438.5,70C 439.308,70.3076 439.975,70.8076 440.5,71.5C 441.664,165.46 441.831,259.46 441,353.5C 440.167,354.333 439.333,355.167 438.5,356C 422.17,356.5 405.837,356.667 389.5,356.5C 389.667,289.166 389.5,221.833 389,154.5C 385.5,136.333 374.667,125.5 356.5,122C 289.167,121.5 221.834,121.333 154.5,121.5C 154.333,105.163 154.5,88.8299 155,72.5C 156.045,71.6266 156.878,70.6266 157.5,69.5 Z M 72.5,154.5 C 165.834,154.333 259.167,154.5 352.5,155C 353.416,155.374 354.25,155.874 355,156.5C 356.662,250.419 356.995,344.419 356,438.5C 355.167,439.333 354.333,440.167 353.5,441C 259.833,441.667 166.167,441.667 72.5,441C 71.6919,440.692 71.0253,440.192 70.5,439.5C 69.3359,345.54 69.1693,251.54 70,157.5C 71.045,156.627 71.8783,155.627 72.5,154.5 Z"/></g>
</svg>
