<?xml version="1.0" encoding="UTF-8"?>
<!DOCTYPE svg PUBLIC "-//W3C//DTD SVG 1.1//EN" "http://www.w3.org/Graphics/SVG/1.1/DTD/svg11.dtd">
<svg xmlns="http://www.w3.org/2000/svg" version="1.1" width="512px" height="512px" style="shape-rendering:geometricPrecision; text-rendering:geometricPrecision; image-rendering:optimizeQuality; fill-rule:evenodd; clip-rule:evenodd" xmlns:xlink="http://www.w3.org/1999/xlink">
<g><path style="opacity:0.96" fill="#ffffff" d="M 511.5,249.5 C 511.5,253.5 511.5,257.5 511.5,261.5C 493.093,281.409 474.093,300.909 454.5,320C 440.562,325.957 433.395,321.457 433,306.5C 444.102,293.395 455.935,280.895 468.5,269C 326.5,268.333 184.5,268.333 42.5,269C 55.0645,280.895 66.8979,293.395 78,306.5C 77.5789,321.468 70.4123,325.968 56.5,320C 36.907,300.909 17.907,281.409 -0.5,261.5C -0.5,257.5 -0.5,253.5 -0.5,249.5C 17.907,229.591 36.907,210.091 56.5,191C 68.1372,185.155 75.4706,188.488 78.5,201C 78.204,202.888 77.704,204.722 77,206.5C 65.8631,218.638 54.3631,230.471 42.5,242C 184.5,242.667 326.5,242.667 468.5,242C 456.637,230.471 445.137,218.638 434,206.5C 431.043,196.07 434.876,190.07 445.5,188.5C 448.795,188.295 451.795,189.128 454.5,191C 474.093,210.091 493.093,229.591 511.5,249.5 Z"/></g>
</svg>
