<?xml version="1.0" encoding="UTF-8"?>
<!DOCTYPE svg PUBLIC "-//W3C//DTD SVG 1.1//EN" "http://www.w3.org/Graphics/SVG/1.1/DTD/svg11.dtd">
<svg xmlns="http://www.w3.org/2000/svg" version="1.1" width="512px" height="512px" style="shape-rendering:geometricPrecision; text-rendering:geometricPrecision; image-rendering:optimizeQuality; fill-rule:evenodd; clip-rule:evenodd" xmlns:xlink="http://www.w3.org/1999/xlink">
<g><path style="opacity:0.997" fill="#000000" d="M 270.5,-0.5 C 345.5,-0.5 420.5,-0.5 495.5,-0.5C 503.833,1.83333 509.167,7.16667 511.5,15.5C 511.5,61.8333 511.5,108.167 511.5,154.5C 509.921,158.149 507.921,161.649 505.5,165C 502.211,167.478 498.544,169.144 494.5,170C 420.5,170.667 346.5,170.667 272.5,170C 263.485,168.576 257.985,163.409 256,154.5C 255.333,108.167 255.333,61.8333 256,15.5C 257.91,7.42698 262.744,2.09364 270.5,-0.5 Z"/></g>
<g><path style="opacity:0.978" fill="#000000" d="M 138.5,63.5 C 159.234,63.0347 179.9,63.5347 200.5,65C 211.343,71.19 215.176,80.3566 212,92.5C 209.406,99.4276 204.573,103.928 197.5,106C 180.167,106.333 162.833,106.667 145.5,107C 121.938,110.895 109.104,124.728 107,148.5C 106.167,172.84 106.334,197.174 107.5,221.5C 113.652,215.848 119.652,210.015 125.5,204C 137.449,197.922 147.949,199.755 157,209.5C 161.667,218.167 161.667,226.833 157,235.5C 137.5,255 118,274.5 98.5,294C 89.5,300 80.5,300 71.5,294C 52,274.5 32.5,255 13,235.5C 6.96342,223.869 8.79675,213.703 18.5,205C 27.393,200.101 36.0596,200.434 44.5,206C 51.0321,212.198 57.1987,218.698 63,225.5C 63.3333,196.5 63.6667,167.5 64,138.5C 71.6794,96.321 96.5127,71.321 138.5,63.5 Z"/></g>
<g><path style="opacity:0.972" fill="#000000" d="M 418.5,212.5 C 426.395,211.229 433.395,213.062 439.5,218C 458.333,236.833 477.167,255.667 496,274.5C 503.161,286.67 501.327,297.17 490.5,306C 481.938,310.887 473.604,310.553 465.5,305C 459.333,298.833 453.167,292.667 447,286.5C 446.667,313.833 446.333,341.167 446,368.5C 441.087,410.744 417.92,436.578 376.5,446C 364.702,447.084 352.869,447.584 341,447.5C 330.431,447.632 319.931,447.132 309.5,446C 297.456,438.871 293.956,428.705 299,415.5C 302.043,410.123 306.543,406.623 312.5,405C 329.167,404.667 345.833,404.333 362.5,404C 383.739,401.645 396.905,390.145 402,369.5C 402.667,342.5 402.667,315.5 402,288.5C 396.847,294.62 391.347,300.453 385.5,306C 371.684,313.96 360.184,311.46 351,298.5C 347.313,289.618 348.313,281.284 354,273.5C 372.5,255 391,236.5 409.5,218C 412.564,216.141 415.564,214.308 418.5,212.5 Z"/></g>
<g><path style="opacity:0.997" fill="#000000" d="M 238.5,511.5 C 164.167,511.5 89.8333,511.5 15.5,511.5C 12.5919,510.046 9.59188,508.546 6.5,507C 3.4999,503.486 1.16657,499.653 -0.5,495.5C -0.5,449.167 -0.5,402.833 -0.5,356.5C 1.76963,347.735 7.43629,342.568 16.5,341C 90.5,340.333 164.5,340.333 238.5,341C 247.576,342.41 253.076,347.577 255,356.5C 255.667,402.833 255.667,449.167 255,495.5C 252.9,504.435 247.4,509.768 238.5,511.5 Z"/></g>
</svg>
