<?xml version="1.0" encoding="UTF-8"?>
<!DOCTYPE svg PUBLIC "-//W3C//DTD SVG 1.1//EN" "http://www.w3.org/Graphics/SVG/1.1/DTD/svg11.dtd">
<svg xmlns="http://www.w3.org/2000/svg" version="1.1" width="512px" height="512px" style="shape-rendering:geometricPrecision; text-rendering:geometricPrecision; image-rendering:optimizeQuality; fill-rule:evenodd; clip-rule:evenodd" xmlns:xlink="http://www.w3.org/1999/xlink">
<g><path style="opacity:0.993" fill="#000000" d="M 113.5,-0.5 C 208.167,-0.5 302.833,-0.5 397.5,-0.5C 397.5,23.8333 397.5,48.1667 397.5,72.5C 362.167,72.5 326.833,72.5 291.5,72.5C 291.5,194.5 291.5,316.5 291.5,438.5C 326.833,438.5 362.167,438.5 397.5,438.5C 397.5,462.833 397.5,487.167 397.5,511.5C 302.833,511.5 208.167,511.5 113.5,511.5C 113.5,487.167 113.5,462.833 113.5,438.5C 149.5,438.5 185.5,438.5 221.5,438.5C 221.5,316.5 221.5,194.5 221.5,72.5C 185.5,72.5 149.5,72.5 113.5,72.5C 113.5,48.1667 113.5,23.8333 113.5,-0.5 Z"/></g>
</svg>
