<?xml version="1.0" encoding="UTF-8"?>
<!DOCTYPE svg PUBLIC "-//W3C//DTD SVG 1.1//EN" "http://www.w3.org/Graphics/SVG/1.1/DTD/svg11.dtd">
<svg xmlns="http://www.w3.org/2000/svg" version="1.1" width="512px" height="512px" style="shape-rendering:geometricPrecision; text-rendering:geometricPrecision; image-rendering:optimizeQuality; fill-rule:evenodd; clip-rule:evenodd" xmlns:xlink="http://www.w3.org/1999/xlink">
<g><path style="opacity:0.994" fill="#ffffff" d="M 96.5,63.5 C 202.501,63.3333 308.501,63.5 414.5,64C 431.333,68.8333 442.167,79.6667 447,96.5C 447.667,202.5 447.667,308.5 447,414.5C 442.167,431.333 431.333,442.167 414.5,447C 308.5,447.667 202.5,447.667 96.5,447C 79.6667,442.167 68.8333,431.333 64,414.5C 63.3333,308.5 63.3333,202.5 64,96.5C 69.0164,79.651 79.8497,68.651 96.5,63.5 Z M 403.5,107.5 C 404.666,200.332 404.832,293.332 404,386.5C 402.167,396.333 396.333,402.167 386.5,404C 293.5,404.667 200.5,404.667 107.5,404C 206.368,305.299 305.035,206.465 403.5,107.5 Z M 139.5,149.5 C 167.169,149.333 194.835,149.5 222.5,150C 233.11,155.048 235.943,162.882 231,173.5C 228.407,176.543 225.24,178.71 221.5,180C 194.5,180.667 167.5,180.667 140.5,180C 128.078,174.734 125.245,166.234 132,154.5C 134.426,152.548 136.926,150.881 139.5,149.5 Z"/></g>
<g><path style="opacity:0.964" fill="#ffffff" d="M 321.5,265.5 C 329.956,264.808 336.122,268.141 340,275.5C 341.431,286.422 341.931,297.422 341.5,308.5C 351.839,308.334 362.172,308.5 372.5,309C 383.806,314.479 386.639,322.979 381,334.5C 379.127,336.709 376.96,338.542 374.5,340C 363.564,341.406 352.564,341.906 341.5,341.5C 341.931,352.578 341.431,363.578 340,374.5C 334.334,383.427 326.501,385.927 316.5,382C 313.168,379.509 310.668,376.342 309,372.5C 308.5,362.172 308.334,351.839 308.5,341.5C 297.422,341.931 286.422,341.431 275.5,340C 265.179,333.688 263.013,325.188 269,314.5C 270.543,312.622 272.376,311.122 274.5,310C 285.756,308.567 297.09,308.067 308.5,308.5C 308.334,298.161 308.5,287.828 309,277.5C 311.085,271.246 315.252,267.246 321.5,265.5 Z"/></g>
</svg>
